0
SECTION
2
HEADER
9
$INSUNITS
70
4
0
ENDSEC
0
SECTION
2
TABLES
0
TABLE
2
LTYPE
0
LTYPE
72
65
70
64
2
CONTINUOUS
3
______
73
0
40
0
0
ENDTAB
0
TABLE
2
LAYER
0
ENDTAB
0
ENDSEC
0
SECTION
2
ENTITIES
0
LINE
8
0
10
3.025
20
-2.525
11
16.025
21
-2.525
0
LINE
8
0
10
3.025
20
-16.525
11
16.025
21
-16.525
0
LINE
8
0
10
2.525
20
-3.025
11
2.525
21
-16.025
0
LINE
8
0
10
16.525
20
-3.025
11
16.525
21
-16.025
0
ARC
8
0
10
3.025
20
-3.025
40
0.5
50
90
51
180
0
ARC
8
0
10
16.025
20
-3.025
40
0.5
50
0
51
90
0
ARC
8
0
10
3.025
20
-16.025
40
0.5
50
180
51
270
0
ARC
8
0
10
16.025
20
-16.025
40
0.5
50
270
51
0
0
LINE
8
0
10
22.075
20
-2.525
11
35.075
21
-2.525
0
LINE
8
0
10
22.075
20
-16.525
11
35.075
21
-16.525
0
LINE
8
0
10
21.575
20
-3.025
11
21.575
21
-16.025
0
LINE
8
0
10
35.575
20
-3.025
11
35.575
21
-16.025
0
ARC
8
0
10
22.075
20
-3.025
40
0.5
50
90
51
180
0
ARC
8
0
10
35.075
20
-3.025
40
0.5
50
0
51
90
0
ARC
8
0
10
22.075
20
-16.025
40
0.5
50
180
51
270
0
ARC
8
0
10
35.075
20
-16.025
40
0.5
50
270
51
0
0
LINE
8
0
10
41.125
20
-2.525
11
54.125
21
-2.525
0
LINE
8
0
10
41.125
20
-16.525
11
54.125
21
-16.525
0
LINE
8
0
10
40.625
20
-3.025
11
40.625
21
-16.025
0
LINE
8
0
10
54.625
20
-3.025
11
54.625
21
-16.025
0
ARC
8
0
10
41.125
20
-3.025
40
0.5
50
90
51
180
0
ARC
8
0
10
54.125
20
-3.025
40
0.5
50
0
51
90
0
ARC
8
0
10
41.125
20
-16.025
40
0.5
50
180
51
270
0
ARC
8
0
10
54.125
20
-16.025
40
0.5
50
270
51
0
0
LINE
8
0
10
64.9375
20
-2.525
11
77.9375
21
-2.525
0
LINE
8
0
10
64.9375
20
-16.525
11
77.9375
21
-16.525
0
LINE
8
0
10
64.4375
20
-3.025
11
64.4375
21
-16.025
0
LINE
8
0
10
78.4375
20
-3.025
11
78.4375
21
-16.025
0
ARC
8
0
10
64.9375
20
-3.025
40
0.5
50
90
51
180
0
ARC
8
0
10
77.9375
20
-3.025
40
0.5
50
0
51
90
0
ARC
8
0
10
64.9375
20
-16.025
40
0.5
50
180
51
270
0
ARC
8
0
10
77.9375
20
-16.025
40
0.5
50
270
51
0
0
LINE
8
0
10
83.9875
20
-2.525
11
96.9875
21
-2.525
0
LINE
8
0
10
83.9875
20
-16.525
11
96.9875
21
-16.525
0
LINE
8
0
10
83.4875
20
-3.025
11
83.4875
21
-16.025
0
LINE
8
0
10
97.4875
20
-3.025
11
97.4875
21
-16.025
0
ARC
8
0
10
83.9875
20
-3.025
40
0.5
50
90
51
180
0
ARC
8
0
10
96.9875
20
-3.025
40
0.5
50
0
51
90
0
ARC
8
0
10
83.9875
20
-16.025
40
0.5
50
180
51
270
0
ARC
8
0
10
96.9875
20
-16.025
40
0.5
50
270
51
0
0
LINE
8
0
10
103.0375
20
-2.525
11
116.0375
21
-2.525
0
LINE
8
0
10
103.0375
20
-16.525
11
116.0375
21
-16.525
0
LINE
8
0
10
102.5375
20
-3.025
11
102.5375
21
-16.025
0
LINE
8
0
10
116.5375
20
-3.025
11
116.5375
21
-16.025
0
ARC
8
0
10
103.0375
20
-3.025
40
0.5
50
90
51
180
0
ARC
8
0
10
116.0375
20
-3.025
40
0.5
50
0
51
90
0
ARC
8
0
10
103.0375
20
-16.025
40
0.5
50
180
51
270
0
ARC
8
0
10
116.0375
20
-16.025
40
0.5
50
270
51
0
0
LINE
8
0
10
122.0875
20
-2.525
11
135.0875
21
-2.525
0
LINE
8
0
10
122.0875
20
-16.525
11
135.0875
21
-16.525
0
LINE
8
0
10
121.5875
20
-3.025
11
121.5875
21
-16.025
0
LINE
8
0
10
135.5875
20
-3.025
11
135.5875
21
-16.025
0
ARC
8
0
10
122.0875
20
-3.025
40
0.5
50
90
51
180
0
ARC
8
0
10
135.0875
20
-3.025
40
0.5
50
0
51
90
0
ARC
8
0
10
122.0875
20
-16.025
40
0.5
50
180
51
270
0
ARC
8
0
10
135.0875
20
-16.025
40
0.5
50
270
51
0
0
LINE
8
0
10
141.1375
20
-2.525
11
154.1375
21
-2.525
0
LINE
8
0
10
141.1375
20
-16.525
11
154.1375
21
-16.525
0
LINE
8
0
10
140.6375
20
-3.025
11
140.6375
21
-16.025
0
LINE
8
0
10
154.6375
20
-3.025
11
154.6375
21
-16.025
0
ARC
8
0
10
141.1375
20
-3.025
40
0.5
50
90
51
180
0
ARC
8
0
10
154.1375
20
-3.025
40
0.5
50
0
51
90
0
ARC
8
0
10
141.1375
20
-16.025
40
0.5
50
180
51
270
0
ARC
8
0
10
154.1375
20
-16.025
40
0.5
50
270
51
0
0
LINE
8
0
10
160.1875
20
-2.525
11
173.1875
21
-2.525
0
LINE
8
0
10
160.1875
20
-16.525
11
173.1875
21
-16.525
0
LINE
8
0
10
159.6875
20
-3.025
11
159.6875
21
-16.025
0
LINE
8
0
10
173.6875
20
-3.025
11
173.6875
21
-16.025
0
ARC
8
0
10
160.1875
20
-3.025
40
0.5
50
90
51
180
0
ARC
8
0
10
173.1875
20
-3.025
40
0.5
50
0
51
90
0
ARC
8
0
10
160.1875
20
-16.025
40
0.5
50
180
51
270
0
ARC
8
0
10
173.1875
20
-16.025
40
0.5
50
270
51
0
0
LINE
8
0
10
179.2375
20
-2.525
11
192.2375
21
-2.525
0
LINE
8
0
10
179.2375
20
-16.525
11
192.2375
21
-16.525
0
LINE
8
0
10
178.7375
20
-3.025
11
178.7375
21
-16.025
0
LINE
8
0
10
192.7375
20
-3.025
11
192.7375
21
-16.025
0
ARC
8
0
10
179.2375
20
-3.025
40
0.5
50
90
51
180
0
ARC
8
0
10
192.2375
20
-3.025
40
0.5
50
0
51
90
0
ARC
8
0
10
179.2375
20
-16.025
40
0.5
50
180
51
270
0
ARC
8
0
10
192.2375
20
-16.025
40
0.5
50
270
51
0
0
LINE
8
0
10
198.2875
20
-2.525
11
211.2875
21
-2.525
0
LINE
8
0
10
198.2875
20
-16.525
11
211.2875
21
-16.525
0
LINE
8
0
10
197.7875
20
-3.025
11
197.7875
21
-16.025
0
LINE
8
0
10
211.7875
20
-3.025
11
211.7875
21
-16.025
0
ARC
8
0
10
198.2875
20
-3.025
40
0.5
50
90
51
180
0
ARC
8
0
10
211.2875
20
-3.025
40
0.5
50
0
51
90
0
ARC
8
0
10
198.2875
20
-16.025
40
0.5
50
180
51
270
0
ARC
8
0
10
211.2875
20
-16.025
40
0.5
50
270
51
0
0
LINE
8
0
10
217.3375
20
-2.525
11
230.3375
21
-2.525
0
LINE
8
0
10
217.3375
20
-16.525
11
230.3375
21
-16.525
0
LINE
8
0
10
216.8375
20
-3.025
11
216.8375
21
-16.025
0
LINE
8
0
10
230.8375
20
-3.025
11
230.8375
21
-16.025
0
ARC
8
0
10
217.3375
20
-3.025
40
0.5
50
90
51
180
0
ARC
8
0
10
230.3375
20
-3.025
40
0.5
50
0
51
90
0
ARC
8
0
10
217.3375
20
-16.025
40
0.5
50
180
51
270
0
ARC
8
0
10
230.3375
20
-16.025
40
0.5
50
270
51
0
0
LINE
8
0
10
236.3875
20
-2.525
11
249.3875
21
-2.525
0
LINE
8
0
10
236.3875
20
-16.525
11
249.3875
21
-16.525
0
LINE
8
0
10
235.8875
20
-3.025
11
235.8875
21
-16.025
0
LINE
8
0
10
249.8875
20
-3.025
11
249.8875
21
-16.025
0
ARC
8
0
10
236.3875
20
-3.025
40
0.5
50
90
51
180
0
ARC
8
0
10
249.3875
20
-3.025
40
0.5
50
0
51
90
0
ARC
8
0
10
236.3875
20
-16.025
40
0.5
50
180
51
270
0
ARC
8
0
10
249.3875
20
-16.025
40
0.5
50
270
51
0
0
LINE
8
0
10
255.4375
20
-2.525
11
268.4375
21
-2.525
0
LINE
8
0
10
255.4375
20
-16.525
11
268.4375
21
-16.525
0
LINE
8
0
10
254.9375
20
-3.025
11
254.9375
21
-16.025
0
LINE
8
0
10
268.9375
20
-3.025
11
268.9375
21
-16.025
0
ARC
8
0
10
255.4375
20
-3.025
40
0.5
50
90
51
180
0
ARC
8
0
10
268.4375
20
-3.025
40
0.5
50
0
51
90
0
ARC
8
0
10
255.4375
20
-16.025
40
0.5
50
180
51
270
0
ARC
8
0
10
268.4375
20
-16.025
40
0.5
50
270
51
0
0
LINE
8
0
10
274.4875
20
-2.525
11
287.4875
21
-2.525
0
LINE
8
0
10
274.4875
20
-16.525
11
287.4875
21
-16.525
0
LINE
8
0
10
273.9875
20
-3.025
11
273.9875
21
-16.025
0
LINE
8
0
10
287.9875
20
-3.025
11
287.9875
21
-16.025
0
ARC
8
0
10
274.4875
20
-3.025
40
0.5
50
90
51
180
0
ARC
8
0
10
287.4875
20
-3.025
40
0.5
50
0
51
90
0
ARC
8
0
10
274.4875
20
-16.025
40
0.5
50
180
51
270
0
ARC
8
0
10
287.4875
20
-16.025
40
0.5
50
270
51
0
0
LINE
8
0
10
293.5375
20
-2.525
11
306.5375
21
-2.525
0
LINE
8
0
10
293.5375
20
-16.525
11
306.5375
21
-16.525
0
LINE
8
0
10
293.0375
20
-3.025
11
293.0375
21
-16.025
0
LINE
8
0
10
307.0375
20
-3.025
11
307.0375
21
-16.025
0
ARC
8
0
10
293.5375
20
-3.025
40
0.5
50
90
51
180
0
ARC
8
0
10
306.5375
20
-3.025
40
0.5
50
0
51
90
0
ARC
8
0
10
293.5375
20
-16.025
40
0.5
50
180
51
270
0
ARC
8
0
10
306.5375
20
-16.025
40
0.5
50
270
51
0
0
LINE
8
0
10
322.1125
20
-2.525
11
335.1125
21
-2.525
0
LINE
8
0
10
322.1125
20
-16.525
11
335.1125
21
-16.525
0
LINE
8
0
10
321.6125
20
-3.025
11
321.6125
21
-16.025
0
LINE
8
0
10
335.6125
20
-3.025
11
335.6125
21
-16.025
0
ARC
8
0
10
322.1125
20
-3.025
40
0.5
50
90
51
180
0
ARC
8
0
10
335.1125
20
-3.025
40
0.5
50
0
51
90
0
ARC
8
0
10
322.1125
20
-16.025
40
0.5
50
180
51
270
0
ARC
8
0
10
335.1125
20
-16.025
40
0.5
50
270
51
0
0
LINE
8
0
10
313.6745
20
-3.525
11
319.6745
21
-3.525
0
LINE
8
0
10
313.6745
20
-18.525
11
319.6745
21
-18.525
0
LINE
8
0
10
313.1745
20
-4.025
11
313.1745
21
-18.025
0
LINE
8
0
10
320.1745
20
-4.025
11
320.1745
21
-18.025
0
ARC
8
0
10
313.6745
20
-4.025
40
0.5
50
90
51
180
0
ARC
8
0
10
319.6745
20
-4.025
40
0.5
50
0
51
90
0
ARC
8
0
10
313.6745
20
-18.025
40
0.5
50
180
51
270
0
ARC
8
0
10
319.6745
20
-18.025
40
0.5
50
270
51
0
0
LINE
8
0
10
337.5505
20
-3.525
11
343.5505
21
-3.525
0
LINE
8
0
10
337.5505
20
-18.525
11
343.5505
21
-18.525
0
LINE
8
0
10
337.0505
20
-4.025
11
337.0505
21
-18.025
0
LINE
8
0
10
344.0505
20
-4.025
11
344.0505
21
-18.025
0
ARC
8
0
10
337.5505
20
-4.025
40
0.5
50
90
51
180
0
ARC
8
0
10
343.5505
20
-4.025
40
0.5
50
0
51
90
0
ARC
8
0
10
337.5505
20
-18.025
40
0.5
50
180
51
270
0
ARC
8
0
10
343.5505
20
-18.025
40
0.5
50
270
51
0
0
LINE
8
0
10
355.45
20
-2.525
11
368.45
21
-2.525
0
LINE
8
0
10
355.45
20
-16.525
11
368.45
21
-16.525
0
LINE
8
0
10
354.95
20
-3.025
11
354.95
21
-16.025
0
LINE
8
0
10
368.95
20
-3.025
11
368.95
21
-16.025
0
ARC
8
0
10
355.45
20
-3.025
40
0.5
50
90
51
180
0
ARC
8
0
10
368.45
20
-3.025
40
0.5
50
0
51
90
0
ARC
8
0
10
355.45
20
-16.025
40
0.5
50
180
51
270
0
ARC
8
0
10
368.45
20
-16.025
40
0.5
50
270
51
0
0
LINE
8
0
10
374.5
20
-2.525
11
387.5
21
-2.525
0
LINE
8
0
10
374.5
20
-16.525
11
387.5
21
-16.525
0
LINE
8
0
10
374
20
-3.025
11
374
21
-16.025
0
LINE
8
0
10
388
20
-3.025
11
388
21
-16.025
0
ARC
8
0
10
374.5
20
-3.025
40
0.5
50
90
51
180
0
ARC
8
0
10
387.5
20
-3.025
40
0.5
50
0
51
90
0
ARC
8
0
10
374.5
20
-16.025
40
0.5
50
180
51
270
0
ARC
8
0
10
387.5
20
-16.025
40
0.5
50
270
51
0
0
LINE
8
0
10
393.55
20
-2.525
11
406.55
21
-2.525
0
LINE
8
0
10
393.55
20
-16.525
11
406.55
21
-16.525
0
LINE
8
0
10
393.05
20
-3.025
11
393.05
21
-16.025
0
LINE
8
0
10
407.05
20
-3.025
11
407.05
21
-16.025
0
ARC
8
0
10
393.55
20
-3.025
40
0.5
50
90
51
180
0
ARC
8
0
10
406.55
20
-3.025
40
0.5
50
0
51
90
0
ARC
8
0
10
393.55
20
-16.025
40
0.5
50
180
51
270
0
ARC
8
0
10
406.55
20
-16.025
40
0.5
50
270
51
0
0
LINE
8
0
10
3.025
20
-21.575
11
16.025
21
-21.575
0
LINE
8
0
10
3.025
20
-35.575
11
16.025
21
-35.575
0
LINE
8
0
10
2.525
20
-22.075
11
2.525
21
-35.075
0
LINE
8
0
10
16.525
20
-22.075
11
16.525
21
-35.075
0
ARC
8
0
10
3.025
20
-22.075
40
0.5
50
90
51
180
0
ARC
8
0
10
16.025
20
-22.075
40
0.5
50
0
51
90
0
ARC
8
0
10
3.025
20
-35.075
40
0.5
50
180
51
270
0
ARC
8
0
10
16.025
20
-35.075
40
0.5
50
270
51
0
0
LINE
8
0
10
22.075
20
-21.575
11
35.075
21
-21.575
0
LINE
8
0
10
22.075
20
-35.575
11
35.075
21
-35.575
0
LINE
8
0
10
21.575
20
-22.075
11
21.575
21
-35.075
0
LINE
8
0
10
35.575
20
-22.075
11
35.575
21
-35.075
0
ARC
8
0
10
22.075
20
-22.075
40
0.5
50
90
51
180
0
ARC
8
0
10
35.075
20
-22.075
40
0.5
50
0
51
90
0
ARC
8
0
10
22.075
20
-35.075
40
0.5
50
180
51
270
0
ARC
8
0
10
35.075
20
-35.075
40
0.5
50
270
51
0
0
LINE
8
0
10
41.125
20
-21.575
11
54.125
21
-21.575
0
LINE
8
0
10
41.125
20
-35.575
11
54.125
21
-35.575
0
LINE
8
0
10
40.625
20
-22.075
11
40.625
21
-35.075
0
LINE
8
0
10
54.625
20
-22.075
11
54.625
21
-35.075
0
ARC
8
0
10
41.125
20
-22.075
40
0.5
50
90
51
180
0
ARC
8
0
10
54.125
20
-22.075
40
0.5
50
0
51
90
0
ARC
8
0
10
41.125
20
-35.075
40
0.5
50
180
51
270
0
ARC
8
0
10
54.125
20
-35.075
40
0.5
50
270
51
0
0
LINE
8
0
10
69.7
20
-21.575
11
82.7
21
-21.575
0
LINE
8
0
10
69.7
20
-35.575
11
82.7
21
-35.575
0
LINE
8
0
10
69.2
20
-22.075
11
69.2
21
-35.075
0
LINE
8
0
10
83.2
20
-22.075
11
83.2
21
-35.075
0
ARC
8
0
10
69.7
20
-22.075
40
0.5
50
90
51
180
0
ARC
8
0
10
82.7
20
-22.075
40
0.5
50
0
51
90
0
ARC
8
0
10
69.7
20
-35.075
40
0.5
50
180
51
270
0
ARC
8
0
10
82.7
20
-35.075
40
0.5
50
270
51
0
0
LINE
8
0
10
93.5125
20
-21.575
11
106.5125
21
-21.575
0
LINE
8
0
10
93.5125
20
-35.575
11
106.5125
21
-35.575
0
LINE
8
0
10
93.0125
20
-22.075
11
93.0125
21
-35.075
0
LINE
8
0
10
107.0125
20
-22.075
11
107.0125
21
-35.075
0
ARC
8
0
10
93.5125
20
-22.075
40
0.5
50
90
51
180
0
ARC
8
0
10
106.5125
20
-22.075
40
0.5
50
0
51
90
0
ARC
8
0
10
93.5125
20
-35.075
40
0.5
50
180
51
270
0
ARC
8
0
10
106.5125
20
-35.075
40
0.5
50
270
51
0
0
LINE
8
0
10
112.5625
20
-21.575
11
125.5625
21
-21.575
0
LINE
8
0
10
112.5625
20
-35.575
11
125.5625
21
-35.575
0
LINE
8
0
10
112.0625
20
-22.075
11
112.0625
21
-35.075
0
LINE
8
0
10
126.0625
20
-22.075
11
126.0625
21
-35.075
0
ARC
8
0
10
112.5625
20
-22.075
40
0.5
50
90
51
180
0
ARC
8
0
10
125.5625
20
-22.075
40
0.5
50
0
51
90
0
ARC
8
0
10
112.5625
20
-35.075
40
0.5
50
180
51
270
0
ARC
8
0
10
125.5625
20
-35.075
40
0.5
50
270
51
0
0
LINE
8
0
10
131.6125
20
-21.575
11
144.6125
21
-21.575
0
LINE
8
0
10
131.6125
20
-35.575
11
144.6125
21
-35.575
0
LINE
8
0
10
131.1125
20
-22.075
11
131.1125
21
-35.075
0
LINE
8
0
10
145.1125
20
-22.075
11
145.1125
21
-35.075
0
ARC
8
0
10
131.6125
20
-22.075
40
0.5
50
90
51
180
0
ARC
8
0
10
144.6125
20
-22.075
40
0.5
50
0
51
90
0
ARC
8
0
10
131.6125
20
-35.075
40
0.5
50
180
51
270
0
ARC
8
0
10
144.6125
20
-35.075
40
0.5
50
270
51
0
0
LINE
8
0
10
150.6625
20
-21.575
11
163.6625
21
-21.575
0
LINE
8
0
10
150.6625
20
-35.575
11
163.6625
21
-35.575
0
LINE
8
0
10
150.1625
20
-22.075
11
150.1625
21
-35.075
0
LINE
8
0
10
164.1625
20
-22.075
11
164.1625
21
-35.075
0
ARC
8
0
10
150.6625
20
-22.075
40
0.5
50
90
51
180
0
ARC
8
0
10
163.6625
20
-22.075
40
0.5
50
0
51
90
0
ARC
8
0
10
150.6625
20
-35.075
40
0.5
50
180
51
270
0
ARC
8
0
10
163.6625
20
-35.075
40
0.5
50
270
51
0
0
LINE
8
0
10
169.7125
20
-21.575
11
182.7125
21
-21.575
0
LINE
8
0
10
169.7125
20
-35.575
11
182.7125
21
-35.575
0
LINE
8
0
10
169.2125
20
-22.075
11
169.2125
21
-35.075
0
LINE
8
0
10
183.2125
20
-22.075
11
183.2125
21
-35.075
0
ARC
8
0
10
169.7125
20
-22.075
40
0.5
50
90
51
180
0
ARC
8
0
10
182.7125
20
-22.075
40
0.5
50
0
51
90
0
ARC
8
0
10
169.7125
20
-35.075
40
0.5
50
180
51
270
0
ARC
8
0
10
182.7125
20
-35.075
40
0.5
50
270
51
0
0
LINE
8
0
10
188.7625
20
-21.575
11
201.7625
21
-21.575
0
LINE
8
0
10
188.7625
20
-35.575
11
201.7625
21
-35.575
0
LINE
8
0
10
188.2625
20
-22.075
11
188.2625
21
-35.075
0
LINE
8
0
10
202.2625
20
-22.075
11
202.2625
21
-35.075
0
ARC
8
0
10
188.7625
20
-22.075
40
0.5
50
90
51
180
0
ARC
8
0
10
201.7625
20
-22.075
40
0.5
50
0
51
90
0
ARC
8
0
10
188.7625
20
-35.075
40
0.5
50
180
51
270
0
ARC
8
0
10
201.7625
20
-35.075
40
0.5
50
270
51
0
0
LINE
8
0
10
207.8125
20
-21.575
11
220.8125
21
-21.575
0
LINE
8
0
10
207.8125
20
-35.575
11
220.8125
21
-35.575
0
LINE
8
0
10
207.3125
20
-22.075
11
207.3125
21
-35.075
0
LINE
8
0
10
221.3125
20
-22.075
11
221.3125
21
-35.075
0
ARC
8
0
10
207.8125
20
-22.075
40
0.5
50
90
51
180
0
ARC
8
0
10
220.8125
20
-22.075
40
0.5
50
0
51
90
0
ARC
8
0
10
207.8125
20
-35.075
40
0.5
50
180
51
270
0
ARC
8
0
10
220.8125
20
-35.075
40
0.5
50
270
51
0
0
LINE
8
0
10
226.8625
20
-21.575
11
239.8625
21
-21.575
0
LINE
8
0
10
226.8625
20
-35.575
11
239.8625
21
-35.575
0
LINE
8
0
10
226.3625
20
-22.075
11
226.3625
21
-35.075
0
LINE
8
0
10
240.3625
20
-22.075
11
240.3625
21
-35.075
0
ARC
8
0
10
226.8625
20
-22.075
40
0.5
50
90
51
180
0
ARC
8
0
10
239.8625
20
-22.075
40
0.5
50
0
51
90
0
ARC
8
0
10
226.8625
20
-35.075
40
0.5
50
180
51
270
0
ARC
8
0
10
239.8625
20
-35.075
40
0.5
50
270
51
0
0
LINE
8
0
10
245.9125
20
-21.575
11
258.9125
21
-21.575
0
LINE
8
0
10
245.9125
20
-35.575
11
258.9125
21
-35.575
0
LINE
8
0
10
245.4125
20
-22.075
11
245.4125
21
-35.075
0
LINE
8
0
10
259.4125
20
-22.075
11
259.4125
21
-35.075
0
ARC
8
0
10
245.9125
20
-22.075
40
0.5
50
90
51
180
0
ARC
8
0
10
258.9125
20
-22.075
40
0.5
50
0
51
90
0
ARC
8
0
10
245.9125
20
-35.075
40
0.5
50
180
51
270
0
ARC
8
0
10
258.9125
20
-35.075
40
0.5
50
270
51
0
0
LINE
8
0
10
264.9625
20
-21.575
11
277.9625
21
-21.575
0
LINE
8
0
10
264.9625
20
-35.575
11
277.9625
21
-35.575
0
LINE
8
0
10
264.4625
20
-22.075
11
264.4625
21
-35.075
0
LINE
8
0
10
278.4625
20
-22.075
11
278.4625
21
-35.075
0
ARC
8
0
10
264.9625
20
-22.075
40
0.5
50
90
51
180
0
ARC
8
0
10
277.9625
20
-22.075
40
0.5
50
0
51
90
0
ARC
8
0
10
264.9625
20
-35.075
40
0.5
50
180
51
270
0
ARC
8
0
10
277.9625
20
-35.075
40
0.5
50
270
51
0
0
LINE
8
0
10
284.0125
20
-21.575
11
297.0125
21
-21.575
0
LINE
8
0
10
284.0125
20
-35.575
11
297.0125
21
-35.575
0
LINE
8
0
10
283.5125
20
-22.075
11
283.5125
21
-35.075
0
LINE
8
0
10
297.5125
20
-22.075
11
297.5125
21
-35.075
0
ARC
8
0
10
284.0125
20
-22.075
40
0.5
50
90
51
180
0
ARC
8
0
10
297.0125
20
-22.075
40
0.5
50
0
51
90
0
ARC
8
0
10
284.0125
20
-35.075
40
0.5
50
180
51
270
0
ARC
8
0
10
297.0125
20
-35.075
40
0.5
50
270
51
0
0
LINE
8
0
10
303.0625
20
-21.575
11
316.0625
21
-21.575
0
LINE
8
0
10
303.0625
20
-35.575
11
316.0625
21
-35.575
0
LINE
8
0
10
302.5625
20
-22.075
11
302.5625
21
-35.075
0
LINE
8
0
10
316.5625
20
-22.075
11
316.5625
21
-35.075
0
ARC
8
0
10
303.0625
20
-22.075
40
0.5
50
90
51
180
0
ARC
8
0
10
316.0625
20
-22.075
40
0.5
50
0
51
90
0
ARC
8
0
10
303.0625
20
-35.075
40
0.5
50
180
51
270
0
ARC
8
0
10
316.0625
20
-35.075
40
0.5
50
270
51
0
0
LINE
8
0
10
326.875
20
-21.575
11
339.875
21
-21.575
0
LINE
8
0
10
326.875
20
-35.575
11
339.875
21
-35.575
0
LINE
8
0
10
326.375
20
-22.075
11
326.375
21
-35.075
0
LINE
8
0
10
340.375
20
-22.075
11
340.375
21
-35.075
0
ARC
8
0
10
326.875
20
-22.075
40
0.5
50
90
51
180
0
ARC
8
0
10
339.875
20
-22.075
40
0.5
50
0
51
90
0
ARC
8
0
10
326.875
20
-35.075
40
0.5
50
180
51
270
0
ARC
8
0
10
339.875
20
-35.075
40
0.5
50
270
51
0
0
LINE
8
0
10
355.45
20
-21.575
11
368.45
21
-21.575
0
LINE
8
0
10
355.45
20
-35.575
11
368.45
21
-35.575
0
LINE
8
0
10
354.95
20
-22.075
11
354.95
21
-35.075
0
LINE
8
0
10
368.95
20
-22.075
11
368.95
21
-35.075
0
ARC
8
0
10
355.45
20
-22.075
40
0.5
50
90
51
180
0
ARC
8
0
10
368.45
20
-22.075
40
0.5
50
0
51
90
0
ARC
8
0
10
355.45
20
-35.075
40
0.5
50
180
51
270
0
ARC
8
0
10
368.45
20
-35.075
40
0.5
50
270
51
0
0
LINE
8
0
10
374.5
20
-21.575
11
387.5
21
-21.575
0
LINE
8
0
10
374.5
20
-35.575
11
387.5
21
-35.575
0
LINE
8
0
10
374
20
-22.075
11
374
21
-35.075
0
LINE
8
0
10
388
20
-22.075
11
388
21
-35.075
0
ARC
8
0
10
374.5
20
-22.075
40
0.5
50
90
51
180
0
ARC
8
0
10
387.5
20
-22.075
40
0.5
50
0
51
90
0
ARC
8
0
10
374.5
20
-35.075
40
0.5
50
180
51
270
0
ARC
8
0
10
387.5
20
-35.075
40
0.5
50
270
51
0
0
LINE
8
0
10
393.55
20
-21.575
11
406.55
21
-21.575
0
LINE
8
0
10
393.55
20
-35.575
11
406.55
21
-35.575
0
LINE
8
0
10
393.05
20
-22.075
11
393.05
21
-35.075
0
LINE
8
0
10
407.05
20
-22.075
11
407.05
21
-35.075
0
ARC
8
0
10
393.55
20
-22.075
40
0.5
50
90
51
180
0
ARC
8
0
10
406.55
20
-22.075
40
0.5
50
0
51
90
0
ARC
8
0
10
393.55
20
-35.075
40
0.5
50
180
51
270
0
ARC
8
0
10
406.55
20
-35.075
40
0.5
50
270
51
0
0
LINE
8
0
10
3.025
20
-40.625
11
16.025
21
-40.625
0
LINE
8
0
10
3.025
20
-54.625
11
16.025
21
-54.625
0
LINE
8
0
10
2.525
20
-41.125
11
2.525
21
-54.125
0
LINE
8
0
10
16.525
20
-41.125
11
16.525
21
-54.125
0
ARC
8
0
10
3.025
20
-41.125
40
0.5
50
90
51
180
0
ARC
8
0
10
16.025
20
-41.125
40
0.5
50
0
51
90
0
ARC
8
0
10
3.025
20
-54.125
40
0.5
50
180
51
270
0
ARC
8
0
10
16.025
20
-54.125
40
0.5
50
270
51
0
0
LINE
8
0
10
22.075
20
-40.625
11
35.075
21
-40.625
0
LINE
8
0
10
22.075
20
-54.625
11
35.075
21
-54.625
0
LINE
8
0
10
21.575
20
-41.125
11
21.575
21
-54.125
0
LINE
8
0
10
35.575
20
-41.125
11
35.575
21
-54.125
0
ARC
8
0
10
22.075
20
-41.125
40
0.5
50
90
51
180
0
ARC
8
0
10
35.075
20
-41.125
40
0.5
50
0
51
90
0
ARC
8
0
10
22.075
20
-54.125
40
0.5
50
180
51
270
0
ARC
8
0
10
35.075
20
-54.125
40
0.5
50
270
51
0
0
LINE
8
0
10
41.125
20
-40.625
11
54.125
21
-40.625
0
LINE
8
0
10
41.125
20
-54.625
11
54.125
21
-54.625
0
LINE
8
0
10
40.625
20
-41.125
11
40.625
21
-54.125
0
LINE
8
0
10
54.625
20
-41.125
11
54.625
21
-54.125
0
ARC
8
0
10
41.125
20
-41.125
40
0.5
50
90
51
180
0
ARC
8
0
10
54.125
20
-41.125
40
0.5
50
0
51
90
0
ARC
8
0
10
41.125
20
-54.125
40
0.5
50
180
51
270
0
ARC
8
0
10
54.125
20
-54.125
40
0.5
50
270
51
0
0
LINE
8
0
10
67.31875
20
-40.625
11
80.31875
21
-40.625
0
LINE
8
0
10
67.31875
20
-54.625
11
80.31875
21
-54.625
0
LINE
8
0
10
66.81875
20
-41.125
11
66.81875
21
-54.125
0
LINE
8
0
10
80.81875
20
-41.125
11
80.81875
21
-54.125
0
ARC
8
0
10
67.31875
20
-41.125
40
0.5
50
90
51
180
0
ARC
8
0
10
80.31875
20
-41.125
40
0.5
50
0
51
90
0
ARC
8
0
10
67.31875
20
-54.125
40
0.5
50
180
51
270
0
ARC
8
0
10
80.31875
20
-54.125
40
0.5
50
270
51
0
0
LINE
8
0
10
98.275
20
-40.625
11
111.275
21
-40.625
0
LINE
8
0
10
98.275
20
-54.625
11
111.275
21
-54.625
0
LINE
8
0
10
97.775
20
-41.125
11
97.775
21
-54.125
0
LINE
8
0
10
111.775
20
-41.125
11
111.775
21
-54.125
0
ARC
8
0
10
98.275
20
-41.125
40
0.5
50
90
51
180
0
ARC
8
0
10
111.275
20
-41.125
40
0.5
50
0
51
90
0
ARC
8
0
10
98.275
20
-54.125
40
0.5
50
180
51
270
0
ARC
8
0
10
111.275
20
-54.125
40
0.5
50
270
51
0
0
LINE
8
0
10
117.325
20
-40.625
11
130.325
21
-40.625
0
LINE
8
0
10
117.325
20
-54.625
11
130.325
21
-54.625
0
LINE
8
0
10
116.825
20
-41.125
11
116.825
21
-54.125
0
LINE
8
0
10
130.825
20
-41.125
11
130.825
21
-54.125
0
ARC
8
0
10
117.325
20
-41.125
40
0.5
50
90
51
180
0
ARC
8
0
10
130.325
20
-41.125
40
0.5
50
0
51
90
0
ARC
8
0
10
117.325
20
-54.125
40
0.5
50
180
51
270
0
ARC
8
0
10
130.325
20
-54.125
40
0.5
50
270
51
0
0
LINE
8
0
10
136.375
20
-40.625
11
149.375
21
-40.625
0
LINE
8
0
10
136.375
20
-54.625
11
149.375
21
-54.625
0
LINE
8
0
10
135.875
20
-41.125
11
135.875
21
-54.125
0
LINE
8
0
10
149.875
20
-41.125
11
149.875
21
-54.125
0
ARC
8
0
10
136.375
20
-41.125
40
0.5
50
90
51
180
0
ARC
8
0
10
149.375
20
-41.125
40
0.5
50
0
51
90
0
ARC
8
0
10
136.375
20
-54.125
40
0.5
50
180
51
270
0
ARC
8
0
10
149.375
20
-54.125
40
0.5
50
270
51
0
0
LINE
8
0
10
155.425
20
-40.625
11
168.425
21
-40.625
0
LINE
8
0
10
155.425
20
-54.625
11
168.425
21
-54.625
0
LINE
8
0
10
154.925
20
-41.125
11
154.925
21
-54.125
0
LINE
8
0
10
168.925
20
-41.125
11
168.925
21
-54.125
0
ARC
8
0
10
155.425
20
-41.125
40
0.5
50
90
51
180
0
ARC
8
0
10
168.425
20
-41.125
40
0.5
50
0
51
90
0
ARC
8
0
10
155.425
20
-54.125
40
0.5
50
180
51
270
0
ARC
8
0
10
168.425
20
-54.125
40
0.5
50
270
51
0
0
LINE
8
0
10
174.475
20
-40.625
11
187.475
21
-40.625
0
LINE
8
0
10
174.475
20
-54.625
11
187.475
21
-54.625
0
LINE
8
0
10
173.975
20
-41.125
11
173.975
21
-54.125
0
LINE
8
0
10
187.975
20
-41.125
11
187.975
21
-54.125
0
ARC
8
0
10
174.475
20
-41.125
40
0.5
50
90
51
180
0
ARC
8
0
10
187.475
20
-41.125
40
0.5
50
0
51
90
0
ARC
8
0
10
174.475
20
-54.125
40
0.5
50
180
51
270
0
ARC
8
0
10
187.475
20
-54.125
40
0.5
50
270
51
0
0
LINE
8
0
10
193.525
20
-40.625
11
206.525
21
-40.625
0
LINE
8
0
10
193.525
20
-54.625
11
206.525
21
-54.625
0
LINE
8
0
10
193.025
20
-41.125
11
193.025
21
-54.125
0
LINE
8
0
10
207.025
20
-41.125
11
207.025
21
-54.125
0
ARC
8
0
10
193.525
20
-41.125
40
0.5
50
90
51
180
0
ARC
8
0
10
206.525
20
-41.125
40
0.5
50
0
51
90
0
ARC
8
0
10
193.525
20
-54.125
40
0.5
50
180
51
270
0
ARC
8
0
10
206.525
20
-54.125
40
0.5
50
270
51
0
0
LINE
8
0
10
212.575
20
-40.625
11
225.575
21
-40.625
0
LINE
8
0
10
212.575
20
-54.625
11
225.575
21
-54.625
0
LINE
8
0
10
212.075
20
-41.125
11
212.075
21
-54.125
0
LINE
8
0
10
226.075
20
-41.125
11
226.075
21
-54.125
0
ARC
8
0
10
212.575
20
-41.125
40
0.5
50
90
51
180
0
ARC
8
0
10
225.575
20
-41.125
40
0.5
50
0
51
90
0
ARC
8
0
10
212.575
20
-54.125
40
0.5
50
180
51
270
0
ARC
8
0
10
225.575
20
-54.125
40
0.5
50
270
51
0
0
LINE
8
0
10
231.625
20
-40.625
11
244.625
21
-40.625
0
LINE
8
0
10
231.625
20
-54.625
11
244.625
21
-54.625
0
LINE
8
0
10
231.125
20
-41.125
11
231.125
21
-54.125
0
LINE
8
0
10
245.125
20
-41.125
11
245.125
21
-54.125
0
ARC
8
0
10
231.625
20
-41.125
40
0.5
50
90
51
180
0
ARC
8
0
10
244.625
20
-41.125
40
0.5
50
0
51
90
0
ARC
8
0
10
231.625
20
-54.125
40
0.5
50
180
51
270
0
ARC
8
0
10
244.625
20
-54.125
40
0.5
50
270
51
0
0
LINE
8
0
10
250.675
20
-40.625
11
263.675
21
-40.625
0
LINE
8
0
10
250.675
20
-54.625
11
263.675
21
-54.625
0
LINE
8
0
10
250.175
20
-41.125
11
250.175
21
-54.125
0
LINE
8
0
10
264.175
20
-41.125
11
264.175
21
-54.125
0
ARC
8
0
10
250.675
20
-41.125
40
0.5
50
90
51
180
0
ARC
8
0
10
263.675
20
-41.125
40
0.5
50
0
51
90
0
ARC
8
0
10
250.675
20
-54.125
40
0.5
50
180
51
270
0
ARC
8
0
10
263.675
20
-54.125
40
0.5
50
270
51
0
0
LINE
8
0
10
269.725
20
-40.625
11
282.725
21
-40.625
0
LINE
8
0
10
269.725
20
-54.625
11
282.725
21
-54.625
0
LINE
8
0
10
269.225
20
-41.125
11
269.225
21
-54.125
0
LINE
8
0
10
283.225
20
-41.125
11
283.225
21
-54.125
0
ARC
8
0
10
269.725
20
-41.125
40
0.5
50
90
51
180
0
ARC
8
0
10
282.725
20
-41.125
40
0.5
50
0
51
90
0
ARC
8
0
10
269.725
20
-54.125
40
0.5
50
180
51
270
0
ARC
8
0
10
282.725
20
-54.125
40
0.5
50
270
51
0
0
LINE
8
0
10
288.775
20
-40.625
11
301.775
21
-40.625
0
LINE
8
0
10
288.775
20
-54.625
11
301.775
21
-54.625
0
LINE
8
0
10
288.275
20
-41.125
11
288.275
21
-54.125
0
LINE
8
0
10
302.275
20
-41.125
11
302.275
21
-54.125
0
ARC
8
0
10
288.775
20
-41.125
40
0.5
50
90
51
180
0
ARC
8
0
10
301.775
20
-41.125
40
0.5
50
0
51
90
0
ARC
8
0
10
288.775
20
-54.125
40
0.5
50
180
51
270
0
ARC
8
0
10
301.775
20
-54.125
40
0.5
50
270
51
0
0
LINE
8
0
10
319.73125
20
-40.625
11
332.73125
21
-40.625
0
LINE
8
0
10
319.73125
20
-54.625
11
332.73125
21
-54.625
0
LINE
8
0
10
319.23125
20
-41.125
11
319.23125
21
-54.125
0
LINE
8
0
10
333.23125
20
-41.125
11
333.23125
21
-54.125
0
ARC
8
0
10
319.73125
20
-41.125
40
0.5
50
90
51
180
0
ARC
8
0
10
332.73125
20
-41.125
40
0.5
50
0
51
90
0
ARC
8
0
10
319.73125
20
-54.125
40
0.5
50
180
51
270
0
ARC
8
0
10
332.73125
20
-54.125
40
0.5
50
270
51
0
0
LINE
8
0
10
311.29325
20
-41.625
11
317.29325
21
-41.625
0
LINE
8
0
10
311.29325
20
-56.625
11
317.29325
21
-56.625
0
LINE
8
0
10
310.79325
20
-42.125
11
310.79325
21
-56.125
0
LINE
8
0
10
317.79325
20
-42.125
11
317.79325
21
-56.125
0
ARC
8
0
10
311.29325
20
-42.125
40
0.5
50
90
51
180
0
ARC
8
0
10
317.29325
20
-42.125
40
0.5
50
0
51
90
0
ARC
8
0
10
311.29325
20
-56.125
40
0.5
50
180
51
270
0
ARC
8
0
10
317.29325
20
-56.125
40
0.5
50
270
51
0
0
LINE
8
0
10
335.16925
20
-41.625
11
341.16925
21
-41.625
0
LINE
8
0
10
335.16925
20
-56.625
11
341.16925
21
-56.625
0
LINE
8
0
10
334.66925
20
-42.125
11
334.66925
21
-56.125
0
LINE
8
0
10
341.66925
20
-42.125
11
341.66925
21
-56.125
0
ARC
8
0
10
335.16925
20
-42.125
40
0.5
50
90
51
180
0
ARC
8
0
10
341.16925
20
-42.125
40
0.5
50
0
51
90
0
ARC
8
0
10
335.16925
20
-56.125
40
0.5
50
180
51
270
0
ARC
8
0
10
341.16925
20
-56.125
40
0.5
50
270
51
0
0
LINE
8
0
10
355.45
20
-40.625
11
368.45
21
-40.625
0
LINE
8
0
10
355.45
20
-54.625
11
368.45
21
-54.625
0
LINE
8
0
10
354.95
20
-41.125
11
354.95
21
-54.125
0
LINE
8
0
10
368.95
20
-41.125
11
368.95
21
-54.125
0
ARC
8
0
10
355.45
20
-41.125
40
0.5
50
90
51
180
0
ARC
8
0
10
368.45
20
-41.125
40
0.5
50
0
51
90
0
ARC
8
0
10
355.45
20
-54.125
40
0.5
50
180
51
270
0
ARC
8
0
10
368.45
20
-54.125
40
0.5
50
270
51
0
0
LINE
8
0
10
374.5
20
-40.625
11
387.5
21
-40.625
0
LINE
8
0
10
374.5
20
-54.625
11
387.5
21
-54.625
0
LINE
8
0
10
374
20
-41.125
11
374
21
-54.125
0
LINE
8
0
10
388
20
-41.125
11
388
21
-54.125
0
ARC
8
0
10
374.5
20
-41.125
40
0.5
50
90
51
180
0
ARC
8
0
10
387.5
20
-41.125
40
0.5
50
0
51
90
0
ARC
8
0
10
374.5
20
-54.125
40
0.5
50
180
51
270
0
ARC
8
0
10
387.5
20
-54.125
40
0.5
50
270
51
0
0
LINE
8
0
10
393.55
20
-40.625
11
406.55
21
-40.625
0
LINE
8
0
10
393.55
20
-54.625
11
406.55
21
-54.625
0
LINE
8
0
10
393.05
20
-41.125
11
393.05
21
-54.125
0
LINE
8
0
10
407.05
20
-41.125
11
407.05
21
-54.125
0
ARC
8
0
10
393.55
20
-41.125
40
0.5
50
90
51
180
0
ARC
8
0
10
406.55
20
-41.125
40
0.5
50
0
51
90
0
ARC
8
0
10
393.55
20
-54.125
40
0.5
50
180
51
270
0
ARC
8
0
10
406.55
20
-54.125
40
0.5
50
270
51
0
0
LINE
8
0
10
3.025
20
-59.675
11
16.025
21
-59.675
0
LINE
8
0
10
3.025
20
-73.675
11
16.025
21
-73.675
0
LINE
8
0
10
2.525
20
-60.175
11
2.525
21
-73.175
0
LINE
8
0
10
16.525
20
-60.175
11
16.525
21
-73.175
0
ARC
8
0
10
3.025
20
-60.175
40
0.5
50
90
51
180
0
ARC
8
0
10
16.025
20
-60.175
40
0.5
50
0
51
90
0
ARC
8
0
10
3.025
20
-73.175
40
0.5
50
180
51
270
0
ARC
8
0
10
16.025
20
-73.175
40
0.5
50
270
51
0
0
LINE
8
0
10
22.075
20
-59.675
11
35.075
21
-59.675
0
LINE
8
0
10
22.075
20
-73.675
11
35.075
21
-73.675
0
LINE
8
0
10
21.575
20
-60.175
11
21.575
21
-73.175
0
LINE
8
0
10
35.575
20
-60.175
11
35.575
21
-73.175
0
ARC
8
0
10
22.075
20
-60.175
40
0.5
50
90
51
180
0
ARC
8
0
10
35.075
20
-60.175
40
0.5
50
0
51
90
0
ARC
8
0
10
22.075
20
-73.175
40
0.5
50
180
51
270
0
ARC
8
0
10
35.075
20
-73.175
40
0.5
50
270
51
0
0
LINE
8
0
10
41.125
20
-59.675
11
54.125
21
-59.675
0
LINE
8
0
10
41.125
20
-73.675
11
54.125
21
-73.675
0
LINE
8
0
10
40.625
20
-60.175
11
40.625
21
-73.175
0
LINE
8
0
10
54.625
20
-60.175
11
54.625
21
-73.175
0
ARC
8
0
10
41.125
20
-60.175
40
0.5
50
90
51
180
0
ARC
8
0
10
54.125
20
-60.175
40
0.5
50
0
51
90
0
ARC
8
0
10
41.125
20
-73.175
40
0.5
50
180
51
270
0
ARC
8
0
10
54.125
20
-73.175
40
0.5
50
270
51
0
0
LINE
8
0
10
76.84375
20
-59.675
11
89.84375
21
-59.675
0
LINE
8
0
10
76.84375
20
-73.675
11
89.84375
21
-73.675
0
LINE
8
0
10
76.34375
20
-60.175
11
76.34375
21
-73.175
0
LINE
8
0
10
90.34375
20
-60.175
11
90.34375
21
-73.175
0
ARC
8
0
10
76.84375
20
-60.175
40
0.5
50
90
51
180
0
ARC
8
0
10
89.84375
20
-60.175
40
0.5
50
0
51
90
0
ARC
8
0
10
76.84375
20
-73.175
40
0.5
50
180
51
270
0
ARC
8
0
10
89.84375
20
-73.175
40
0.5
50
270
51
0
0
LINE
8
0
10
68.40575
20
-60.675
11
74.40575
21
-60.675
0
LINE
8
0
10
68.40575
20
-75.675
11
74.40575
21
-75.675
0
LINE
8
0
10
67.90575
20
-61.175
11
67.90575
21
-75.175
0
LINE
8
0
10
74.90575
20
-61.175
11
74.90575
21
-75.175
0
ARC
8
0
10
68.40575
20
-61.175
40
0.5
50
90
51
180
0
ARC
8
0
10
74.40575
20
-61.175
40
0.5
50
0
51
90
0
ARC
8
0
10
68.40575
20
-75.175
40
0.5
50
180
51
270
0
ARC
8
0
10
74.40575
20
-75.175
40
0.5
50
270
51
0
0
LINE
8
0
10
92.28175
20
-60.675
11
98.28175
21
-60.675
0
LINE
8
0
10
92.28175
20
-75.675
11
98.28175
21
-75.675
0
LINE
8
0
10
91.78175
20
-61.175
11
91.78175
21
-75.175
0
LINE
8
0
10
98.78175
20
-61.175
11
98.78175
21
-75.175
0
ARC
8
0
10
92.28175
20
-61.175
40
0.5
50
90
51
180
0
ARC
8
0
10
98.28175
20
-61.175
40
0.5
50
0
51
90
0
ARC
8
0
10
92.28175
20
-75.175
40
0.5
50
180
51
270
0
ARC
8
0
10
98.28175
20
-75.175
40
0.5
50
270
51
0
0
LINE
8
0
10
107.8
20
-59.675
11
120.8
21
-59.675
0
LINE
8
0
10
107.8
20
-73.675
11
120.8
21
-73.675
0
LINE
8
0
10
107.3
20
-60.175
11
107.3
21
-73.175
0
LINE
8
0
10
121.3
20
-60.175
11
121.3
21
-73.175
0
ARC
8
0
10
107.8
20
-60.175
40
0.5
50
90
51
180
0
ARC
8
0
10
120.8
20
-60.175
40
0.5
50
0
51
90
0
ARC
8
0
10
107.8
20
-73.175
40
0.5
50
180
51
270
0
ARC
8
0
10
120.8
20
-73.175
40
0.5
50
270
51
0
0
LINE
8
0
10
126.85
20
-59.675
11
139.85
21
-59.675
0
LINE
8
0
10
126.85
20
-73.675
11
139.85
21
-73.675
0
LINE
8
0
10
126.35
20
-60.175
11
126.35
21
-73.175
0
LINE
8
0
10
140.35
20
-60.175
11
140.35
21
-73.175
0
ARC
8
0
10
126.85
20
-60.175
40
0.5
50
90
51
180
0
ARC
8
0
10
139.85
20
-60.175
40
0.5
50
0
51
90
0
ARC
8
0
10
126.85
20
-73.175
40
0.5
50
180
51
270
0
ARC
8
0
10
139.85
20
-73.175
40
0.5
50
270
51
0
0
LINE
8
0
10
145.9
20
-59.675
11
158.9
21
-59.675
0
LINE
8
0
10
145.9
20
-73.675
11
158.9
21
-73.675
0
LINE
8
0
10
145.4
20
-60.175
11
145.4
21
-73.175
0
LINE
8
0
10
159.4
20
-60.175
11
159.4
21
-73.175
0
ARC
8
0
10
145.9
20
-60.175
40
0.5
50
90
51
180
0
ARC
8
0
10
158.9
20
-60.175
40
0.5
50
0
51
90
0
ARC
8
0
10
145.9
20
-73.175
40
0.5
50
180
51
270
0
ARC
8
0
10
158.9
20
-73.175
40
0.5
50
270
51
0
0
LINE
8
0
10
164.95
20
-59.675
11
177.95
21
-59.675
0
LINE
8
0
10
164.95
20
-73.675
11
177.95
21
-73.675
0
LINE
8
0
10
164.45
20
-60.175
11
164.45
21
-73.175
0
LINE
8
0
10
178.45
20
-60.175
11
178.45
21
-73.175
0
ARC
8
0
10
164.95
20
-60.175
40
0.5
50
90
51
180
0
ARC
8
0
10
177.95
20
-60.175
40
0.5
50
0
51
90
0
ARC
8
0
10
164.95
20
-73.175
40
0.5
50
180
51
270
0
ARC
8
0
10
177.95
20
-73.175
40
0.5
50
270
51
0
0
LINE
8
0
10
184
20
-59.675
11
197
21
-59.675
0
LINE
8
0
10
184
20
-73.675
11
197
21
-73.675
0
LINE
8
0
10
183.5
20
-60.175
11
183.5
21
-73.175
0
LINE
8
0
10
197.5
20
-60.175
11
197.5
21
-73.175
0
ARC
8
0
10
184
20
-60.175
40
0.5
50
90
51
180
0
ARC
8
0
10
197
20
-60.175
40
0.5
50
0
51
90
0
ARC
8
0
10
184
20
-73.175
40
0.5
50
180
51
270
0
ARC
8
0
10
197
20
-73.175
40
0.5
50
270
51
0
0
LINE
8
0
10
203.05
20
-59.675
11
216.05
21
-59.675
0
LINE
8
0
10
203.05
20
-73.675
11
216.05
21
-73.675
0
LINE
8
0
10
202.55
20
-60.175
11
202.55
21
-73.175
0
LINE
8
0
10
216.55
20
-60.175
11
216.55
21
-73.175
0
ARC
8
0
10
203.05
20
-60.175
40
0.5
50
90
51
180
0
ARC
8
0
10
216.05
20
-60.175
40
0.5
50
0
51
90
0
ARC
8
0
10
203.05
20
-73.175
40
0.5
50
180
51
270
0
ARC
8
0
10
216.05
20
-73.175
40
0.5
50
270
51
0
0
LINE
8
0
10
222.1
20
-59.675
11
235.1
21
-59.675
0
LINE
8
0
10
222.1
20
-73.675
11
235.1
21
-73.675
0
LINE
8
0
10
221.6
20
-60.175
11
221.6
21
-73.175
0
LINE
8
0
10
235.6
20
-60.175
11
235.6
21
-73.175
0
ARC
8
0
10
222.1
20
-60.175
40
0.5
50
90
51
180
0
ARC
8
0
10
235.1
20
-60.175
40
0.5
50
0
51
90
0
ARC
8
0
10
222.1
20
-73.175
40
0.5
50
180
51
270
0
ARC
8
0
10
235.1
20
-73.175
40
0.5
50
270
51
0
0
LINE
8
0
10
241.15
20
-59.675
11
254.15
21
-59.675
0
LINE
8
0
10
241.15
20
-73.675
11
254.15
21
-73.675
0
LINE
8
0
10
240.65
20
-60.175
11
240.65
21
-73.175
0
LINE
8
0
10
254.65
20
-60.175
11
254.65
21
-73.175
0
ARC
8
0
10
241.15
20
-60.175
40
0.5
50
90
51
180
0
ARC
8
0
10
254.15
20
-60.175
40
0.5
50
0
51
90
0
ARC
8
0
10
241.15
20
-73.175
40
0.5
50
180
51
270
0
ARC
8
0
10
254.15
20
-73.175
40
0.5
50
270
51
0
0
LINE
8
0
10
260.2
20
-59.675
11
273.2
21
-59.675
0
LINE
8
0
10
260.2
20
-73.675
11
273.2
21
-73.675
0
LINE
8
0
10
259.7
20
-60.175
11
259.7
21
-73.175
0
LINE
8
0
10
273.7
20
-60.175
11
273.7
21
-73.175
0
ARC
8
0
10
260.2
20
-60.175
40
0.5
50
90
51
180
0
ARC
8
0
10
273.2
20
-60.175
40
0.5
50
0
51
90
0
ARC
8
0
10
260.2
20
-73.175
40
0.5
50
180
51
270
0
ARC
8
0
10
273.2
20
-73.175
40
0.5
50
270
51
0
0
LINE
8
0
10
279.25
20
-59.675
11
292.25
21
-59.675
0
LINE
8
0
10
279.25
20
-73.675
11
292.25
21
-73.675
0
LINE
8
0
10
278.75
20
-60.175
11
278.75
21
-73.175
0
LINE
8
0
10
292.75
20
-60.175
11
292.75
21
-73.175
0
ARC
8
0
10
279.25
20
-60.175
40
0.5
50
90
51
180
0
ARC
8
0
10
292.25
20
-60.175
40
0.5
50
0
51
90
0
ARC
8
0
10
279.25
20
-73.175
40
0.5
50
180
51
270
0
ARC
8
0
10
292.25
20
-73.175
40
0.5
50
270
51
0
0
LINE
8
0
10
314.96875
20
-59.675
11
327.96875
21
-59.675
0
LINE
8
0
10
314.96875
20
-73.675
11
327.96875
21
-73.675
0
LINE
8
0
10
314.46875
20
-60.175
11
314.46875
21
-73.175
0
LINE
8
0
10
328.46875
20
-60.175
11
328.46875
21
-73.175
0
ARC
8
0
10
314.96875
20
-60.175
40
0.5
50
90
51
180
0
ARC
8
0
10
327.96875
20
-60.175
40
0.5
50
0
51
90
0
ARC
8
0
10
314.96875
20
-73.175
40
0.5
50
180
51
270
0
ARC
8
0
10
327.96875
20
-73.175
40
0.5
50
270
51
0
0
LINE
8
0
10
306.53075
20
-60.675
11
312.53075
21
-60.675
0
LINE
8
0
10
306.53075
20
-75.675
11
312.53075
21
-75.675
0
LINE
8
0
10
306.03075
20
-61.175
11
306.03075
21
-75.175
0
LINE
8
0
10
313.03075
20
-61.175
11
313.03075
21
-75.175
0
ARC
8
0
10
306.53075
20
-61.175
40
0.5
50
90
51
180
0
ARC
8
0
10
312.53075
20
-61.175
40
0.5
50
0
51
90
0
ARC
8
0
10
306.53075
20
-75.175
40
0.5
50
180
51
270
0
ARC
8
0
10
312.53075
20
-75.175
40
0.5
50
270
51
0
0
LINE
8
0
10
330.40675
20
-60.675
11
336.40675
21
-60.675
0
LINE
8
0
10
330.40675
20
-75.675
11
336.40675
21
-75.675
0
LINE
8
0
10
329.90675
20
-61.175
11
329.90675
21
-75.175
0
LINE
8
0
10
336.90675
20
-61.175
11
336.90675
21
-75.175
0
ARC
8
0
10
330.40675
20
-61.175
40
0.5
50
90
51
180
0
ARC
8
0
10
336.40675
20
-61.175
40
0.5
50
0
51
90
0
ARC
8
0
10
330.40675
20
-75.175
40
0.5
50
180
51
270
0
ARC
8
0
10
336.40675
20
-75.175
40
0.5
50
270
51
0
0
LINE
8
0
10
355.45
20
-59.675
11
368.45
21
-59.675
0
LINE
8
0
10
355.45
20
-73.675
11
368.45
21
-73.675
0
LINE
8
0
10
354.95
20
-60.175
11
354.95
21
-73.175
0
LINE
8
0
10
368.95
20
-60.175
11
368.95
21
-73.175
0
ARC
8
0
10
355.45
20
-60.175
40
0.5
50
90
51
180
0
ARC
8
0
10
368.45
20
-60.175
40
0.5
50
0
51
90
0
ARC
8
0
10
355.45
20
-73.175
40
0.5
50
180
51
270
0
ARC
8
0
10
368.45
20
-73.175
40
0.5
50
270
51
0
0
LINE
8
0
10
374.5
20
-59.675
11
387.5
21
-59.675
0
LINE
8
0
10
374.5
20
-73.675
11
387.5
21
-73.675
0
LINE
8
0
10
374
20
-60.175
11
374
21
-73.175
0
LINE
8
0
10
388
20
-60.175
11
388
21
-73.175
0
ARC
8
0
10
374.5
20
-60.175
40
0.5
50
90
51
180
0
ARC
8
0
10
387.5
20
-60.175
40
0.5
50
0
51
90
0
ARC
8
0
10
374.5
20
-73.175
40
0.5
50
180
51
270
0
ARC
8
0
10
387.5
20
-73.175
40
0.5
50
270
51
0
0
LINE
8
0
10
393.55
20
-59.675
11
406.55
21
-59.675
0
LINE
8
0
10
393.55
20
-73.675
11
406.55
21
-73.675
0
LINE
8
0
10
393.05
20
-60.175
11
393.05
21
-73.175
0
LINE
8
0
10
407.05
20
-60.175
11
407.05
21
-73.175
0
ARC
8
0
10
393.55
20
-60.175
40
0.5
50
90
51
180
0
ARC
8
0
10
406.55
20
-60.175
40
0.5
50
0
51
90
0
ARC
8
0
10
393.55
20
-73.175
40
0.5
50
180
51
270
0
ARC
8
0
10
406.55
20
-73.175
40
0.5
50
270
51
0
0
LINE
8
0
10
3.025
20
-78.725
11
16.025
21
-78.725
0
LINE
8
0
10
3.025
20
-92.725
11
16.025
21
-92.725
0
LINE
8
0
10
2.525
20
-79.225
11
2.525
21
-92.225
0
LINE
8
0
10
16.525
20
-79.225
11
16.525
21
-92.225
0
ARC
8
0
10
3.025
20
-79.225
40
0.5
50
90
51
180
0
ARC
8
0
10
16.025
20
-79.225
40
0.5
50
0
51
90
0
ARC
8
0
10
3.025
20
-92.225
40
0.5
50
180
51
270
0
ARC
8
0
10
16.025
20
-92.225
40
0.5
50
270
51
0
0
LINE
8
0
10
22.075
20
-78.725
11
35.075
21
-78.725
0
LINE
8
0
10
22.075
20
-92.725
11
35.075
21
-92.725
0
LINE
8
0
10
21.575
20
-79.225
11
21.575
21
-92.225
0
LINE
8
0
10
35.575
20
-79.225
11
35.575
21
-92.225
0
ARC
8
0
10
22.075
20
-79.225
40
0.5
50
90
51
180
0
ARC
8
0
10
35.075
20
-79.225
40
0.5
50
0
51
90
0
ARC
8
0
10
22.075
20
-92.225
40
0.5
50
180
51
270
0
ARC
8
0
10
35.075
20
-92.225
40
0.5
50
270
51
0
0
LINE
8
0
10
41.125
20
-78.725
11
54.125
21
-78.725
0
LINE
8
0
10
41.125
20
-92.725
11
54.125
21
-92.725
0
LINE
8
0
10
40.625
20
-79.225
11
40.625
21
-92.225
0
LINE
8
0
10
54.625
20
-79.225
11
54.625
21
-92.225
0
ARC
8
0
10
41.125
20
-79.225
40
0.5
50
90
51
180
0
ARC
8
0
10
54.125
20
-79.225
40
0.5
50
0
51
90
0
ARC
8
0
10
41.125
20
-92.225
40
0.5
50
180
51
270
0
ARC
8
0
10
54.125
20
-92.225
40
0.5
50
270
51
0
0
LINE
8
0
10
69.7
20
-78.725
11
82.7
21
-78.725
0
LINE
8
0
10
69.7
20
-92.725
11
82.7
21
-92.725
0
LINE
8
0
10
69.2
20
-79.225
11
69.2
21
-92.225
0
LINE
8
0
10
83.2
20
-79.225
11
83.2
21
-92.225
0
ARC
8
0
10
69.7
20
-79.225
40
0.5
50
90
51
180
0
ARC
8
0
10
82.7
20
-79.225
40
0.5
50
0
51
90
0
ARC
8
0
10
69.7
20
-92.225
40
0.5
50
180
51
270
0
ARC
8
0
10
82.7
20
-92.225
40
0.5
50
270
51
0
0
LINE
8
0
10
93.5125
20
-78.725
11
106.5125
21
-78.725
0
LINE
8
0
10
93.5125
20
-92.725
11
106.5125
21
-92.725
0
LINE
8
0
10
93.0125
20
-79.225
11
93.0125
21
-92.225
0
LINE
8
0
10
107.0125
20
-79.225
11
107.0125
21
-92.225
0
ARC
8
0
10
93.5125
20
-79.225
40
0.5
50
90
51
180
0
ARC
8
0
10
106.5125
20
-79.225
40
0.5
50
0
51
90
0
ARC
8
0
10
93.5125
20
-92.225
40
0.5
50
180
51
270
0
ARC
8
0
10
106.5125
20
-92.225
40
0.5
50
270
51
0
0
LINE
8
0
10
117.325
20
-78.725
11
130.325
21
-78.725
0
LINE
8
0
10
117.325
20
-92.725
11
130.325
21
-92.725
0
LINE
8
0
10
116.825
20
-79.225
11
116.825
21
-92.225
0
LINE
8
0
10
130.825
20
-79.225
11
130.825
21
-92.225
0
ARC
8
0
10
117.325
20
-79.225
40
0.5
50
90
51
180
0
ARC
8
0
10
130.325
20
-79.225
40
0.5
50
0
51
90
0
ARC
8
0
10
117.325
20
-92.225
40
0.5
50
180
51
270
0
ARC
8
0
10
130.325
20
-92.225
40
0.5
50
270
51
0
0
LINE
8
0
10
198.2875
20
-78.725
11
211.2875
21
-78.725
0
LINE
8
0
10
198.2875
20
-92.725
11
211.2875
21
-92.725
0
LINE
8
0
10
197.7875
20
-79.225
11
197.7875
21
-92.225
0
LINE
8
0
10
211.7875
20
-79.225
11
211.7875
21
-92.225
0
ARC
8
0
10
198.2875
20
-79.225
40
0.5
50
90
51
180
0
ARC
8
0
10
211.2875
20
-79.225
40
0.5
50
0
51
90
0
ARC
8
0
10
198.2875
20
-92.225
40
0.5
50
180
51
270
0
ARC
8
0
10
211.2875
20
-92.225
40
0.5
50
270
51
0
0
LINE
8
0
10
144.6375
20
-79.725
11
150.6375
21
-79.725
0
LINE
8
0
10
144.6375
20
-94.725
11
150.6375
21
-94.725
0
LINE
8
0
10
144.1375
20
-80.225
11
144.1375
21
-94.225
0
LINE
8
0
10
151.1375
20
-80.225
11
151.1375
21
-94.225
0
ARC
8
0
10
144.6375
20
-80.225
40
0.5
50
90
51
180
0
ARC
8
0
10
150.6375
20
-80.225
40
0.5
50
0
51
90
0
ARC
8
0
10
144.6375
20
-94.225
40
0.5
50
180
51
270
0
ARC
8
0
10
150.6375
20
-94.225
40
0.5
50
270
51
0
0
LINE
8
0
10
258.9375
20
-79.725
11
264.9375
21
-79.725
0
LINE
8
0
10
258.9375
20
-94.725
11
264.9375
21
-94.725
0
LINE
8
0
10
258.4375
20
-80.225
11
258.4375
21
-94.225
0
LINE
8
0
10
265.4375
20
-80.225
11
265.4375
21
-94.225
0
ARC
8
0
10
258.9375
20
-80.225
40
0.5
50
90
51
180
0
ARC
8
0
10
264.9375
20
-80.225
40
0.5
50
0
51
90
0
ARC
8
0
10
258.9375
20
-94.225
40
0.5
50
180
51
270
0
ARC
8
0
10
264.9375
20
-94.225
40
0.5
50
270
51
0
0
LINE
8
0
10
279.25
20
-78.725
11
292.25
21
-78.725
0
LINE
8
0
10
279.25
20
-92.725
11
292.25
21
-92.725
0
LINE
8
0
10
278.75
20
-79.225
11
278.75
21
-92.225
0
LINE
8
0
10
292.75
20
-79.225
11
292.75
21
-92.225
0
ARC
8
0
10
279.25
20
-79.225
40
0.5
50
90
51
180
0
ARC
8
0
10
292.25
20
-79.225
40
0.5
50
0
51
90
0
ARC
8
0
10
279.25
20
-92.225
40
0.5
50
180
51
270
0
ARC
8
0
10
292.25
20
-92.225
40
0.5
50
270
51
0
0
LINE
8
0
10
303.0625
20
-78.725
11
316.0625
21
-78.725
0
LINE
8
0
10
303.0625
20
-92.725
11
316.0625
21
-92.725
0
LINE
8
0
10
302.5625
20
-79.225
11
302.5625
21
-92.225
0
LINE
8
0
10
316.5625
20
-79.225
11
316.5625
21
-92.225
0
ARC
8
0
10
303.0625
20
-79.225
40
0.5
50
90
51
180
0
ARC
8
0
10
316.0625
20
-79.225
40
0.5
50
0
51
90
0
ARC
8
0
10
303.0625
20
-92.225
40
0.5
50
180
51
270
0
ARC
8
0
10
316.0625
20
-92.225
40
0.5
50
270
51
0
0
LINE
8
0
10
326.875
20
-78.725
11
339.875
21
-78.725
0
LINE
8
0
10
326.875
20
-92.725
11
339.875
21
-92.725
0
LINE
8
0
10
326.375
20
-79.225
11
326.375
21
-92.225
0
LINE
8
0
10
340.375
20
-79.225
11
340.375
21
-92.225
0
ARC
8
0
10
326.875
20
-79.225
40
0.5
50
90
51
180
0
ARC
8
0
10
339.875
20
-79.225
40
0.5
50
0
51
90
0
ARC
8
0
10
326.875
20
-92.225
40
0.5
50
180
51
270
0
ARC
8
0
10
339.875
20
-92.225
40
0.5
50
270
51
0
0
LINE
8
0
10
355.45
20
-78.725
11
368.45
21
-78.725
0
LINE
8
0
10
355.45
20
-92.725
11
368.45
21
-92.725
0
LINE
8
0
10
354.95
20
-79.225
11
354.95
21
-92.225
0
LINE
8
0
10
368.95
20
-79.225
11
368.95
21
-92.225
0
ARC
8
0
10
355.45
20
-79.225
40
0.5
50
90
51
180
0
ARC
8
0
10
368.45
20
-79.225
40
0.5
50
0
51
90
0
ARC
8
0
10
355.45
20
-92.225
40
0.5
50
180
51
270
0
ARC
8
0
10
368.45
20
-92.225
40
0.5
50
270
51
0
0
LINE
8
0
10
374.5
20
-78.725
11
387.5
21
-78.725
0
LINE
8
0
10
374.5
20
-92.725
11
387.5
21
-92.725
0
LINE
8
0
10
374
20
-79.225
11
374
21
-92.225
0
LINE
8
0
10
388
20
-79.225
11
388
21
-92.225
0
ARC
8
0
10
374.5
20
-79.225
40
0.5
50
90
51
180
0
ARC
8
0
10
387.5
20
-79.225
40
0.5
50
0
51
90
0
ARC
8
0
10
374.5
20
-92.225
40
0.5
50
180
51
270
0
ARC
8
0
10
387.5
20
-92.225
40
0.5
50
270
51
0
0
LINE
8
0
10
393.55
20
-78.725
11
406.55
21
-78.725
0
LINE
8
0
10
393.55
20
-92.725
11
406.55
21
-92.725
0
LINE
8
0
10
393.05
20
-79.225
11
393.05
21
-92.225
0
LINE
8
0
10
407.05
20
-79.225
11
407.05
21
-92.225
0
ARC
8
0
10
393.55
20
-79.225
40
0.5
50
90
51
180
0
ARC
8
0
10
406.55
20
-79.225
40
0.5
50
0
51
90
0
ARC
8
0
10
393.55
20
-92.225
40
0.5
50
180
51
270
0
ARC
8
0
10
406.55
20
-92.225
40
0.5
50
270
51
0
0
LINE
8
0
10
0
20
-95.25
11
409.575
21
-95.25
0
LINE
8
0
10
0
20
0
11
409.575
21
0
0
LINE
8
0
10
0
20
-95.25
11
0
21
0
0
LINE
8
0
10
409.575
20
-95.25
11
409.575
21
0
0
ENDSEC
0
EOF