0
SECTION
2
HEADER
9
$INSUNITS
70
4
9
$ACADVER
1
AC1014
9
$HANDSEED
5
FFFF
0
ENDSEC
0
SECTION
2
TABLES
0
TABLE
2
VPORT
5
8
100
AcDbSymbolTable
0
ENDTAB
0
TABLE
2
LTYPE
5
5
100
AcDbSymbolTable
0
LTYPE
5
14
100
AcDbSymbolTableRecord
100
AcDbLinetypeTableRecord
2
BYBLOCK
70
0
0
LTYPE
5
15
100
AcDbSymbolTableRecord
100
AcDbLinetypeTableRecord
2
BYLAYER
70
0
0
ENDTAB
0
TABLE
2
LAYER
5
2
100
AcDbSymbolTable
70
2
0
LAYER
5
50
100
AcDbSymbolTableRecord
100
AcDbLayerTableRecord
2
0
70
0
6
CONTINUOUS
0
ENDTAB
0
TABLE
2
STYLE
5
3
100
AcDbSymbolTable
70
1
0
STYLE
5
11
100
AcDbSymbolTableRecord
100
AcDbTextStyleTableRecord
2
STANDARD
70
0
0
ENDTAB
0
TABLE
2
VIEW
5
6
100
AcDbSymbolTable
70
0
0
ENDTAB
0
TABLE
2
UCS
5
7
100
AcDbSymbolTable
70
0
0
ENDTAB
0
TABLE
2
APPID
5
9
100
AcDbSymbolTable
70
2
0
APPID
5
12
100
AcDbSymbolTableRecord
100
AcDbRegAppTableRecord
2
ACAD
70
0
0
ENDTAB
0
TABLE
2
DIMSTYLE
5
A
100
AcDbSymbolTable
70
1
0
ENDTAB
0
TABLE
2
BLOCK_RECORD
5
1
100
AcDbSymbolTable
70
1
0
BLOCK_RECORD
5
1F
100
AcDbSymbolTableRecord
100
AcDbBlockTableRecord
2
*MODEL_SPACE
0
BLOCK_RECORD
5
1B
100
AcDbSymbolTableRecord
100
AcDbBlockTableRecord
2
*PAPER_SPACE
0
ENDTAB
0
ENDSEC
0
SECTION
2
BLOCKS
0
BLOCK
5
20
100
AcDbEntity
100
AcDbBlockBegin
2
*MODEL_SPACE
0
ENDBLK
5
21
100
AcDbEntity
100
AcDbBlockEnd
0
BLOCK
5
1C
100
AcDbEntity
100
AcDbBlockBegin
2
*PAPER_SPACE
0
ENDBLK
5
1D
100
AcDbEntity
100
AcDbBlockEnd
0
ENDSEC
0
SECTION
2
ENTITIES
0
LWPOLYLINE
5
100
100
AcDbEntity
8
0
100
AcDbPolyline
90
8
70
1
43
0.0
10
332.11249999999995
20
-1.2500000000000056
42
0.41421356237310969
10
331.61249999999995
20
-1.7500000000000053
10
331.61249999999995
20
-4.7500000000000053
42
-0.41421356237309515
10
329.61249999999995
20
-6.7500000000000071
10
336.61249999999995
20
-6.7500000000000062
42
0.41421356237309503
10
338.61249999999995
20
-4.7500000000000062
10
338.61249999999995
20
-1.7500000000000053
42
-0.41421356237309503
10
339.11249999999995
20
-1.2500000000000056
0
LINE
5
101
100
AcDbEntity
8
0
100
AcDbLine
10
235.09999999999997
20
-1.2500000000000056
30
-2.9582283945787943e-30
11
235.09999999999997
21
-4.2500000000000027
31
-2.9582283945787943e-30
0
LINE
5
102
100
AcDbEntity
8
0
100
AcDbLine
10
335.11249999999995
20
-1.2500000000000056
30
-5.0062544455294002e-30
11
335.11249999999995
21
-4.2500000000000071
31
-9.8607613152626476e-31
0
LINE
5
103
100
AcDbEntity
8
0
100
AcDbLine
10
252.95937499999994
20
96.5
30
6.6251990086920913e-31
11
252.95937499999994
21
99.500000000000014
31
6.6251990086920913e-31
0
LINE
5
104
100
AcDbEntity
8
0
100
AcDbLine
10
32.790625000000006
20
96.5
30
0
11
32.790625000000006
21
99.500000000000014
31
0
0
LINE
5
105
100
AcDbEntity
8
0
100
AcDbLine
10
331.86985931288064
20
-4.2500000000000169
30
-9.8607613152626476e-31
11
318.11249999999995
21
-4.250000000000008
31
-9.8607613152626476e-31
0
LINE
5
106
100
AcDbEntity
8
0
100
AcDbLine
10
332.11249999999995
20
-1.2500000000000091
30
-9.8607613152626476e-31
11
332.11249999999995
21
-1.2500000000000078
31
0
0
LINE
5
107
100
AcDbEntity
8
0
100
AcDbLine
10
333.69828643762685
20
-2.8357864376269113
30
-9.8607613152626476e-31
11
332.57696609406719
21
-3.9571067811865794
31
-9.8607613152626476e-31
0
ARC
5
108
100
AcDbEntity
8
0
100
AcDbCircle
10
331.86985931288052
20
-3.2499999999995541
30
-9.8607613152626476e-31
40
1.0000000000004627
210
-0
220
0
230
1
100
AcDbArc
50
270.00000000000648
51
314.9999999999855
0
LINE
5
109
100
AcDbEntity
8
0
100
AcDbLine
10
107.80000000000013
20
-1.25000000000001
30
-2.9582283945787943e-30
11
107.80000000000013
21
-4.2500000000000071
31
-2.9582283945787943e-30
0
LINE
5
110
100
AcDbEntity
8
0
100
AcDbLine
10
12.550000000000132
20
-1.2499999999999922
30
-1.4791141972893971e-30
11
12.550000000000132
21
-4.2499999999999982
31
-1.4791141972893971e-30
0
LINE
5
111
100
AcDbEntity
8
0
100
AcDbLine
10
335.11249999999984
20
96.5
30
1.1102230246251565e-15
11
335.11249999999984
21
99.500000000000014
31
-5.5511151231257827e-16
0
LINE
5
112
100
AcDbEntity
8
0
100
AcDbLine
10
335.11249999999995
20
-6.2500000000000071
30
-9.8607613152626476e-31
11
318.11249999999995
21
-6.2500000000000071
31
-9.8607613152626476e-31
0
LINE
5
113
100
AcDbEntity
8
0
100
AcDbLine
10
317.11249999999995
20
-3.2500000000000071
30
-9.8607613152626476e-31
11
317.11249999999995
21
-3.2500000000000071
31
-9.8607613152626476e-31
0
LINE
5
114
100
AcDbEntity
8
0
100
AcDbLine
10
318.11249999999995
20
-2.2500000000000098
30
-9.8607613152626476e-31
11
328.11249999999995
21
-2.2499999999999782
31
-9.8607613152626476e-31
0
LINE
5
115
100
AcDbEntity
8
0
100
AcDbLine
10
331.1124999999999
20
0.74999999999999201
30
-9.8607613152626476e-31
11
331.1124999999999
21
0.74999999999999301
31
-9.8607613152626476e-31
0
LINE
5
116
100
AcDbEntity
8
0
100
AcDbLine
10
315.11249999999995
20
-3.2500000000000067
30
-9.8607613152626476e-31
11
315.11249999999995
21
-3.2500000000000058
31
-9.8607613152626476e-31
0
LINE
5
117
100
AcDbEntity
8
0
100
AcDbLine
10
318.11249999999995
20
-0.25000000000001188
30
-9.8607613152626476e-31
11
328.11249999999995
21
-0.24999999999999245
31
-9.8607613152626476e-31
0
LINE
5
118
100
AcDbEntity
8
0
100
AcDbLine
10
329.11249999999995
20
0.74999999999999356
30
-9.8607613152626476e-31
11
329.11249999999995
21
0.74999999999999445
31
-9.8607613152626476e-31
0
ARC
5
119
100
AcDbEntity
8
0
100
AcDbCircle
10
318.11249999999995
20
-3.2499999999999889
30
-9.8607613152626476e-31
40
1.0000000000000142
210
0
220
0
230
1
100
AcDbArc
50
180
51
270
0
ARC
5
120
100
AcDbEntity
8
0
100
AcDbCircle
10
318.11249999999995
20
-3.250000000000024
30
-9.8607613152626476e-31
40
1.0000000000000142
210
0
220
-0
230
1
100
AcDbArc
50
90
51
180
0
ARC
5
121
100
AcDbEntity
8
0
100
AcDbCircle
10
318.11249999999995
20
-3.249999999999992
30
-9.8607613152626476e-31
40
3.0000000000000071
210
0
220
0
230
1
100
AcDbArc
50
180
51
270
0
ARC
5
122
100
AcDbEntity
8
0
100
AcDbCircle
10
318.11249999999995
20
-3.2500000000000191
30
-9.8607613152626476e-31
40
3.0000000000000071
210
0
220
-0
230
1
100
AcDbArc
50
90
51
180
0
ARC
5
123
100
AcDbEntity
8
0
100
AcDbCircle
10
328.11249999999995
20
0.74999999999999345
30
-9.8607613152626476e-31
40
2.9999999999999716
210
-0
220
0
230
1
100
AcDbArc
50
270
51
360
0
LINE
5
124
100
AcDbEntity
8
0
100
AcDbLine
10
-0.75000000000002742
20
3.7499999999999916
30
-1.2025318677149362e-32
11
-0.75000000000000633
21
91.500000000000043
31
-2.4651903288156619e-31
0
LINE
5
125
100
AcDbEntity
8
0
100
AcDbLine
10
348.41250000000002
20
91.500000000000043
30
1.7089005662497899e-45
11
348.41250000000008
21
3.7499999999999822
31
3.5032461608120427e-44
0
LINE
5
126
100
AcDbEntity
8
0
100
AcDbLine
10
332.11249999999995
20
1.7500000000000151
30
-9.8607613152626476e-31
11
346.41250000000002
21
1.7499999999999958
31
-9.8607613152626476e-31
0
LINE
5
127
100
AcDbEntity
8
0
100
AcDbLine
10
233.68578643762689
20
-2.8357864376269069
30
-9.8607613152626476e-31
11
232.56446609406723
21
-3.957106781186575
31
-9.8607613152626476e-31
0
LINE
5
128
100
AcDbEntity
8
0
100
AcDbLine
10
231.85735931288065
20
-4.2500000000000124
30
-9.8607613152626476e-31
11
218.09999999999997
21
-4.2500000000000036
31
-9.8607613152626476e-31
0
LINE
5
129
100
AcDbEntity
8
0
100
AcDbLine
10
235.09999999999997
20
-6.2500000000000018
30
-9.8607613152626476e-31
11
218.09999999999999
21
-6.2500000000000018
31
-9.8607613152626476e-31
0
ARC
5
130
100
AcDbEntity
8
0
100
AcDbCircle
10
218.09999999999999
20
-3.2499999999999876
30
-9.8607613152626476e-31
40
3.0000000000000071
210
0
220
0
230
1
100
AcDbArc
50
180
51
270
0
ARC
5
131
100
AcDbEntity
8
0
100
AcDbCircle
10
218.09999999999997
20
-3.2499999999999845
30
-9.8607613152626476e-31
40
1.0000000000000142
210
0
220
0
230
1
100
AcDbArc
50
180
51
270
0
ARC
5
132
100
AcDbEntity
8
0
100
AcDbCircle
10
218.09999999999997
20
-3.2500000000000195
30
-9.8607613152626476e-31
40
1.0000000000000142
210
0
220
-0
230
1
100
AcDbArc
50
90
51
180
0
ARC
5
133
100
AcDbEntity
8
0
100
AcDbCircle
10
218.09999999999999
20
-3.2500000000000147
30
-9.8607613152626476e-31
40
3.0000000000000071
210
0
220
-0
230
1
100
AcDbArc
50
90
51
180
0
LINE
5
134
100
AcDbEntity
8
0
100
AcDbLine
10
218.09999999999997
20
-2.2500000000000053
30
-9.8607613152626476e-31
11
228.09999999999997
21
-2.2499999999999738
31
-9.8607613152626476e-31
0
LINE
5
135
100
AcDbEntity
8
0
100
AcDbLine
10
218.09999999999999
20
-0.25000000000000744
30
-9.8607613152626476e-31
11
228.09999999999997
21
-0.24999999999998801
31
-9.8607613152626476e-31
0
LINE
5
136
100
AcDbEntity
8
0
100
AcDbLine
10
231.09999999999991
20
0.74999999999999645
30
-9.8607613152626476e-31
11
231.09999999999991
21
0.74999999999999734
31
-9.8607613152626476e-31
0
ARC
5
137
100
AcDbEntity
8
0
100
AcDbCircle
10
228.09999999999997
20
0.74999999999999789
30
-9.8607613152626476e-31
40
2.9999999999999716
210
-0
220
0
230
1
100
AcDbArc
50
270
51
360
0
ARC
5
138
100
AcDbEntity
8
0
100
AcDbCircle
10
231.8573593128805
20
-3.2499999999995497
30
-9.8607613152626476e-31
40
1.0000000000004627
210
-0
220
0
230
1
100
AcDbArc
50
270.00000000000813
51
314.99999999998778
0
LINE
5
139
100
AcDbEntity
8
0
100
AcDbLine
10
34.204838562373112
20
98.085786437626922
30
0
11
35.326158905932772
21
99.207106781186596
31
0
0
LINE
5
140
100
AcDbEntity
8
0
100
AcDbLine
10
36.033265687119354
20
99.500000000000028
30
0
11
49.790625000000048
21
99.500000000000014
31
0
0
LINE
5
141
100
AcDbEntity
8
0
100
AcDbLine
10
32.79062500000002
20
101.50000000000003
30
0
11
49.790625000000013
21
101.50000000000003
31
0
0
ARC
5
142
100
AcDbEntity
8
0
100
AcDbCircle
10
49.790625000000013
20
98.5
30
1.1102230246251565e-15
40
3.0000000000000071
210
0
220
-0
230
1
100
AcDbArc
50
0
51
90
0
ARC
5
143
100
AcDbEntity
8
0
100
AcDbCircle
10
49.790625000000048
20
98.5
30
1.1102230246251565e-15
40
1.0000000000000142
210
3.0483982964310421e-75
220
-1.7160956789854863e-61
230
1
100
AcDbArc
50
0
51
90
0
ARC
5
144
100
AcDbEntity
8
0
100
AcDbCircle
10
49.790625000000048
20
98.500000000000028
30
1.1102230246251565e-15
40
1.0000000000000142
210
0
220
0
230
1
100
AcDbArc
50
270
51
360
0
ARC
5
145
100
AcDbEntity
8
0
100
AcDbCircle
10
49.790625000000013
20
98.500000000000014
30
1.1102230246251565e-15
40
3.0000000000000071
210
0
220
-3.7007434154171798e-16
230
1
100
AcDbArc
50
-90
51
0
0
LINE
5
146
100
AcDbEntity
8
0
100
AcDbLine
10
49.790625000000048
20
97.500000000000014
30
1.1102230246251565e-15
11
39.790625000000048
21
97.499999999999986
31
1.1102230246251565e-15
0
LINE
5
147
100
AcDbEntity
8
0
100
AcDbLine
10
49.790625000000013
20
95.5
30
0
11
39.790625000000048
21
95.5
31
0
0
ARC
5
148
100
AcDbEntity
8
0
100
AcDbCircle
10
39.790624999999977
20
94.500000000000057
30
0
40
0.99999999999994316
210
0
220
-0
230
1
100
AcDbArc
50
89.999999999995936
51
180
0
LINE
5
149
100
AcDbEntity
8
0
100
AcDbLine
10
36.790625000000077
20
94.500000000000014
30
0
11
36.790625000000077
21
94.500000000000014
31
0
0
ARC
5
150
100
AcDbEntity
8
0
100
AcDbCircle
10
39.790625000000048
20
94.500000000000014
30
0
40
2.9999999999999716
210
0
220
-3.7007434154172236e-16
230
1
100
AcDbArc
50
90
51
180
0
ARC
5
151
100
AcDbEntity
8
0
100
AcDbCircle
10
36.033265687119496
20
98.499999999999545
30
1.1102230246251565e-15
40
1.0000000000004761
210
-1.5777218104405214e-28
220
1.110223024624628e-15
230
1
100
AcDbArc
50
90.000000000008143
51
134.99999999998676
0
LINE
5
152
100
AcDbEntity
8
0
100
AcDbLine
10
328.11249999999995
20
1.7499999999999805
30
-9.8607613152626476e-31
11
232.09999999999994
21
1.7499999999999942
31
-9.8607613152626476e-31
0
ARC
5
153
100
AcDbEntity
8
0
100
AcDbCircle
10
124.80000000000015
20
-3.2499999999999889
30
-9.8607613152626476e-31
40
1.0000000000000187
210
0
220
0
230
1
100
AcDbArc
50
270
51
360
0
ARC
5
154
100
AcDbEntity
8
0
100
AcDbCircle
10
124.80000000000015
20
-3.250000000000024
30
-9.8607613152626476e-31
40
1.0000000000000142
210
0
220
-0
230
1
100
AcDbArc
50
0
51
90
0
ARC
5
155
100
AcDbEntity
8
0
100
AcDbCircle
10
124.80000000000011
20
-3.249999999999992
30
-9.8607613152626476e-31
40
3.0000000000000151
210
0
220
0
230
1
100
AcDbArc
50
270
51
360
0
LINE
5
156
100
AcDbEntity
8
0
100
AcDbLine
10
124.80000000000015
20
-2.2500000000000098
30
-9.8607613152626476e-31
11
114.80000000000015
21
-2.2499999999999782
31
-9.8607613152626476e-31
0
LINE
5
157
100
AcDbEntity
8
0
100
AcDbLine
10
109.2142135623732
20
-2.8357864376269113
30
-9.8607613152626476e-31
11
110.33553390593286
21
-3.9571067811865794
31
-9.8607613152626476e-31
0
ARC
5
158
100
AcDbEntity
8
0
100
AcDbCircle
10
124.80000000000011
20
-3.2500000000000191
30
-9.8607613152626476e-31
40
3.0000000000000071
210
0
220
-0
230
1
100
AcDbArc
50
0
51
90
0
ARC
5
159
100
AcDbEntity
8
0
100
AcDbCircle
10
114.80000000000015
20
0.74999999999999312
30
-9.8607613152626476e-31
40
2.9999999999999716
210
0
220
0
230
1
100
AcDbArc
50
180
51
270
0
LINE
5
160
100
AcDbEntity
8
0
100
AcDbLine
10
111.04264068711944
20
-4.2500000000000169
30
-9.8607613152626476e-31
11
124.80000000000015
21
-4.250000000000008
31
-9.8607613152626476e-31
0
ARC
5
161
100
AcDbEntity
8
0
100
AcDbCircle
10
111.04264068711959
20
-3.2499999999995541
30
-9.8607613152626476e-31
40
1.0000000000004625
210
0
220
0
230
1
100
AcDbArc
50
225.00000000001222
51
269.99999999999187
0
LINE
5
162
100
AcDbEntity
8
0
100
AcDbLine
10
107.80000000000013
20
-6.2500000000000071
30
-9.8607613152626476e-31
11
124.80000000000011
21
-6.2500000000000071
31
-9.8607613152626476e-31
0
LINE
5
163
100
AcDbEntity
8
0
100
AcDbLine
10
124.80000000000011
20
-0.25000000000001188
30
-9.8607613152626476e-31
11
114.80000000000015
21
-0.24999999999999245
31
-9.8607613152626476e-31
0
LINE
5
164
100
AcDbEntity
8
0
100
AcDbLine
10
29.550000000000161
20
-2.2500000000000009
30
-9.8607613152626476e-31
11
19.550000000000161
21
-2.2499999999999694
31
-9.8607613152626476e-31
0
ARC
5
165
100
AcDbEntity
8
0
100
AcDbCircle
10
29.550000000000125
20
-3.2500000000000102
30
-9.8607613152626476e-31
40
3.0000000000000071
210
0
220
-0
230
1
100
AcDbArc
50
0
51
90
0
LINE
5
166
100
AcDbEntity
8
0
100
AcDbLine
10
12.550000000000132
20
-6.2499999999999982
30
-9.8607613152626476e-31
11
29.550000000000125
21
-6.2499999999999982
31
-9.8607613152626476e-31
0
LINE
5
167
100
AcDbEntity
8
0
100
AcDbLine
10
29.550000000000125
20
-0.250000000000003
30
-9.8607613152626476e-31
11
19.550000000000161
21
-0.24999999999998357
31
-9.8607613152626476e-31
0
LINE
5
168
100
AcDbEntity
8
0
100
AcDbLine
10
15.792640687119466
20
-4.250000000000008
30
-9.8607613152626476e-31
11
29.550000000000161
21
-4.2499999999999991
31
-9.8607613152626476e-31
0
ARC
5
169
100
AcDbEntity
8
0
100
AcDbCircle
10
19.550000000000161
20
0.750000000000002
30
-9.8607613152626476e-31
40
2.9999999999999716
210
0
220
0
230
1
100
AcDbArc
50
180
51
270
0
ARC
5
170
100
AcDbEntity
8
0
100
AcDbCircle
10
15.792640687119608
20
-3.2499999999995453
30
-9.8607613152626476e-31
40
1.0000000000004625
210
0
220
0
230
1
100
AcDbArc
50
225.00000000001222
51
269.99999999999187
0
ARC
5
171
100
AcDbEntity
8
0
100
AcDbCircle
10
29.550000000000161
20
-3.2500000000000151
30
-9.8607613152626476e-31
40
1.0000000000000142
210
0
220
-0
230
1
100
AcDbArc
50
0
51
90
0
ARC
5
172
100
AcDbEntity
8
0
100
AcDbCircle
10
29.550000000000125
20
-3.2499999999999831
30
-9.8607613152626476e-31
40
3.0000000000000151
210
0
220
0
230
1
100
AcDbArc
50
270
51
360
0
ARC
5
173
100
AcDbEntity
8
0
100
AcDbCircle
10
29.550000000000161
20
-3.24999999999998
30
-9.8607613152626476e-31
40
1.0000000000000187
210
0
220
0
230
1
100
AcDbArc
50
270
51
360
0
LINE
5
174
100
AcDbEntity
8
0
100
AcDbLine
10
13.964213562373224
20
-2.8357864376269024
30
-9.8607613152626476e-31
11
15.085533905932884
21
-3.9571067811865706
31
-9.8607613152626476e-31
0
LINE
5
175
100
AcDbEntity
8
0
100
AcDbLine
10
235.95937499999991
20
97.500000000000014
30
0
11
245.95937499999991
21
97.499999999999986
31
0
0
ARC
5
176
100
AcDbEntity
8
0
100
AcDbCircle
10
235.95937499999994
20
98.500000000000014
30
0
40
3.0000000000000071
210
0
220
0
230
1
100
AcDbArc
50
180
51
270
0
LINE
5
177
100
AcDbEntity
8
0
100
AcDbLine
10
252.95937499999994
20
101.50000000000003
30
-5.5511151231257827e-16
11
235.95937499999994
21
101.50000000000003
31
-5.5511151231257827e-16
0
LINE
5
178
100
AcDbEntity
8
0
100
AcDbLine
10
235.95937499999994
20
95.5
30
0
11
245.95937499999991
21
95.5
31
0
0
LINE
5
179
100
AcDbEntity
8
0
100
AcDbLine
10
249.71673431288059
20
99.500000000000028
30
0
11
235.95937499999991
21
99.500000000000014
31
0
0
ARC
5
180
100
AcDbEntity
8
0
100
AcDbCircle
10
245.95937499999997
20
94.500000000000043
30
1.1102230246251565e-15
40
0.99999999999994316
210
-4.5436542320661087e-73
220
-1.2789249691520088e-59
230
1
100
AcDbArc
50
0
51
90.000000000003254
0
ARC
5
181
100
AcDbEntity
8
0
100
AcDbCircle
10
245.95937499999991
20
94.500000000000014
30
1.1102230246251565e-15
40
2.9999999999999716
210
-0
220
0
230
1
100
AcDbArc
50
0
51
90
0
ARC
5
182
100
AcDbEntity
8
0
100
AcDbCircle
10
249.71673431288048
20
98.499999999999545
30
0
40
1.0000000000004627
210
-3.4863055968428434e-32
220
3.4863055968413546e-32
230
1
100
AcDbArc
50
45.000000000012669
51
89.999999999993491
0
ARC
5
183
100
AcDbEntity
8
0
100
AcDbCircle
10
235.95937499999991
20
98.500000000000028
30
0
40
1.0000000000000142
210
3.0483982964310421e-75
220
-1.7160956789854863e-61
230
1
100
AcDbArc
50
180
51
270
0
ARC
5
184
100
AcDbEntity
8
0
100
AcDbCircle
10
235.95937499999994
20
98.5
30
0
40
3.0000000000000249
210
0
220
1.8503717077085793e-16
230
1
100
AcDbArc
50
90
51
180
0
ARC
5
185
100
AcDbEntity
8
0
100
AcDbCircle
10
235.95937499999991
20
98.5
30
0
40
1.0000000000000142
210
0
220
-0
230
1
100
AcDbArc
50
90
51
180
0
LINE
5
186
100
AcDbEntity
8
0
100
AcDbLine
10
251.54516143762686
20
98.085786437626922
30
-1.1102230246251565e-15
11
250.4238410940672
21
99.207106781186582
31
0
0
LINE
5
187
100
AcDbEntity
8
0
100
AcDbLine
10
318.11249999999978
20
97.500000000000028
30
-1.1102230246251565e-15
11
328.11249999999978
21
97.5
31
-1.1102230246251565e-15
0
ARC
5
188
100
AcDbEntity
8
0
100
AcDbCircle
10
318.11249999999984
20
98.500000000000028
30
0
40
3.0000000000000071
210
0
220
0
230
1
100
AcDbArc
50
180
51
270
0
LINE
5
189
100
AcDbEntity
8
0
100
AcDbLine
10
335.11249999999984
20
101.50000000000003
30
-1.1102230246251565e-15
11
318.11249999999984
21
101.50000000000003
31
-1.1102230246251565e-15
0
LINE
5
190
100
AcDbEntity
8
0
100
AcDbLine
10
318.11249999999984
20
95.500000000000028
30
-5.5511151231257827e-16
11
328.11249999999978
21
95.5
31
-5.5511151231257827e-16
0
LINE
5
191
100
AcDbEntity
8
0
100
AcDbLine
10
331.86985931288052
20
99.500000000000028
30
0
11
318.11249999999978
21
99.500000000000028
31
0
0
ARC
5
192
100
AcDbEntity
8
0
100
AcDbCircle
10
328.11249999999984
20
94.500000000000057
30
0
40
0.99999999999994316
210
-0
220
0
230
1
100
AcDbArc
50
0
51
90.000000000003254
0
ARC
5
193
100
AcDbEntity
8
0
100
AcDbCircle
10
328.11249999999978
20
94.500000000000028
30
0
40
2.9999999999999716
210
-0
220
0
230
1
100
AcDbArc
50
0
51
90
0
ARC
5
194
100
AcDbEntity
8
0
100
AcDbCircle
10
331.86985931288035
20
98.499999999999574
30
0
40
1.0000000000004627
210
7.8504622934135646e-16
220
7.8504622934169172e-16
230
1
100
AcDbArc
50
45.000000000012086
51
89.999999999990237
0
ARC
5
195
100
AcDbEntity
8
0
100
AcDbCircle
10
318.11249999999978
20
98.500000000000057
30
0
40
1.0000000000000142
210
8.9044045663450804e-73
220
-2.5063670679342762e-59
230
1
100
AcDbArc
50
180
51
270
0
ARC
5
196
100
AcDbEntity
8
0
100
AcDbCircle
10
318.11249999999984
20
98.500000000000014
30
0
40
3.0000000000000071
210
0
220
3.7007434154171798e-16
230
1
100
AcDbArc
50
90
51
180
0
ARC
5
197
100
AcDbEntity
8
0
100
AcDbCircle
10
318.11249999999978
20
98.500000000000014
30
0
40
1.0000000000000142
210
0
220
-0
230
1
100
AcDbArc
50
90
51
180
0
LINE
5
198
100
AcDbEntity
8
0
100
AcDbLine
10
333.69828643762673
20
98.085786437626936
30
-5.5511151231257827e-16
11
332.57696609406707
21
99.207106781186596
31
-1.1102230246251565e-15
0
LINE
5
199
100
AcDbEntity
8
0
100
AcDbLine
10
114.80000000000015
20
1.7499999999999787
30
-9.8607613152626476e-31
11
228.09999999999997
21
1.7499999999999838
31
-9.8607613152626476e-31
0
LINE
5
200
100
AcDbEntity
8
0
100
AcDbLine
10
110.80000000000018
20
1.7499999999999902
30
-9.8607613152626476e-31
11
19.550000000000161
21
1.7499999999999876
31
-9.8607613152626476e-31
0
ARC
5
201
100
AcDbEntity
8
0
100
AcDbCircle
10
328.11249999999995
20
0.74999999999999345
30
-9.8607613152626476e-31
40
0.9999999999999859
210
0
220
0
230
1
100
AcDbArc
50
-90
51
90
0
ARC
5
202
100
AcDbEntity
8
0
100
AcDbCircle
10
19.550000000000161
20
0.750000000000002
30
-9.8607613152626476e-31
40
0.99999999999998557
210
0
220
-0
230
1
100
AcDbArc
50
90
51
270
0
ARC
5
203
100
AcDbEntity
8
0
100
AcDbCircle
10
114.80000000000015
20
0.74999999999999312
30
-9.8607613152626476e-31
40
0.99999999999998557
210
0
220
-0
230
1
100
AcDbArc
50
90
51
270
0
ARC
5
204
100
AcDbEntity
8
0
100
AcDbCircle
10
228.09999999999997
20
0.74999999999999789
30
-9.8607613152626476e-31
40
0.9999999999999859
210
0
220
0
230
1
100
AcDbArc
50
-90
51
90
0
LINE
5
205
100
AcDbEntity
8
0
100
AcDbLine
10
331.1124999999999
20
0.74999999999999301
30
-9.8607613152626476e-31
11
331.1124999999999
21
0.75000000000001521
31
-9.8607613152626476e-31
0
LINE
5
206
100
AcDbEntity
8
0
100
AcDbLine
10
332.11249999999995
20
1.7500000000000373
30
-9.8607613152626476e-31
11
332.11249999999995
21
1.7500000000000151
31
-9.8607613152626476e-31
0
LINE
5
207
100
AcDbEntity
8
0
100
AcDbLine
10
232.09999999999994
20
1.7499999999999942
30
-9.8607613152626476e-31
11
232.09999999999994
21
1.7499999999999898
31
-9.8607613152626476e-31
0
LINE
5
208
100
AcDbEntity
8
0
100
AcDbLine
10
231.09999999999991
20
0.74999999999999445
30
-9.8607613152626476e-31
11
231.09999999999991
21
0.74999999999999734
31
-9.8607613152626476e-31
0
LINE
5
209
100
AcDbEntity
8
0
100
AcDbLine
10
111.80000000000018
20
0.74999999999999201
30
-9.8607613152626476e-31
11
111.80000000000018
21
0.74999999999999223
31
-9.8607613152626476e-31
0
LINE
5
210
100
AcDbEntity
8
0
100
AcDbLine
10
16.550000000000189
20
0.75000000000000089
30
-9.8607613152626476e-31
11
16.550000000000189
21
0.7499999999999879
31
-9.8607613152626476e-31
0
LINE
5
211
100
AcDbEntity
8
0
100
AcDbLine
10
15.550000000000189
20
1.7499999999999871
30
-9.8607613152626476e-31
11
1.2499999999999711
21
1.7499999999999918
31
-9.8607613152626476e-31
0
ARC
5
212
100
AcDbEntity
8
0
100
AcDbCircle
10
15.550000000000189
20
0.74999999999998634
30
-9.8607613152626476e-31
40
1.0000000000000009
210
0
220
-0
230
1
100
AcDbArc
50
0
51
90
0
ARC
5
213
100
AcDbEntity
8
0
100
AcDbCircle
10
110.80000000000018
20
0.74999999999999378
30
-9.8607613152626476e-31
40
0.99999999999999645
210
0
220
0
230
1
100
AcDbArc
50
0
51
90
0
ARC
5
214
100
AcDbEntity
8
0
100
AcDbCircle
10
332.11249999999995
20
0.75000000000002309
30
-9.8607613152626476e-31
40
1.0000000000000142
210
0
220
-0
230
1
100
AcDbArc
50
90
51
180
0
ARC
5
215
100
AcDbEntity
8
0
100
AcDbCircle
10
232.09999999999994
20
0.7499999999999758
30
-9.8607613152626476e-31
40
1.000000000000014
210
0
220
-0
230
1
100
AcDbArc
50
90
51
180
0
LINE
5
216
100
AcDbEntity
8
0
100
AcDbLine
10
331.11249999999978
20
94.500000000000028
30
0
11
331.11249999999978
21
94.500000000000028
31
0
0
LINE
5
217
100
AcDbEntity
8
0
100
AcDbLine
10
332.11249999999978
20
93.500000000000071
30
0
11
346.41250000000002
21
93.500000000000028
31
0
0
LINE
5
218
100
AcDbEntity
8
0
100
AcDbLine
10
245.95937499999997
20
93.500000000000028
30
3.1798676536011935e-16
11
39.790624999999977
21
93.500000000000071
31
0
0
LINE
5
219
100
AcDbEntity
8
0
100
AcDbLine
10
35.790625000000077
20
93.500000000000014
30
1.1102230246251502e-15
11
1.25
21
93.500000000000028
31
1.1102230246251561e-15
0
LINE
5
220
100
AcDbEntity
8
0
100
AcDbLine
10
248.95937499999988
20
94.500000000000014
30
1.1102230246251565e-15
11
248.95937499999988
21
94.500000000000028
31
1.1102230246251565e-15
0
LINE
5
221
100
AcDbEntity
8
0
100
AcDbLine
10
246.95937499999991
20
94.500000000000014
30
1.1102230246251565e-15
11
246.95937499999991
21
94.5
31
1.1102230246251565e-15
0
ARC
5
222
100
AcDbEntity
8
0
100
AcDbCircle
10
245.95937499999997
20
94.499999999999972
30
6.9161548609474153e-16
40
0.99999999999994316
210
-4.1860753853043212e-16
220
-3.7362872073464348e-16
230
1
100
AcDbArc
50
-90
51
0
0
LINE
5
223
100
AcDbEntity
8
0
100
AcDbLine
10
249.95937499999991
20
93.500000000000057
30
1.0961967556101908e-15
11
328.11249999999984
21
93.500000000000071
31
0
0
ARC
5
224
100
AcDbEntity
8
0
100
AcDbCircle
10
328.11249999999984
20
94.500000000000057
30
0
40
0.99999999999999645
210
0
220
0
230
1
100
AcDbArc
50
-90
51
90.000000000003254
0
ARC
5
225
100
AcDbEntity
8
0
100
AcDbCircle
10
332.11249999999973
20
94.500000000000014
30
0
40
0.99999999999994316
210
0
220
0
230
1
100
AcDbArc
50
180
51
270.00000000000324
0
ARC
5
226
100
AcDbEntity
8
0
100
AcDbCircle
10
249.95937499999985
20
94.500000000000028
30
1.0961967556101911e-15
40
0.99999999999997868
210
1.4026269014965769e-17
220
2.9350639086496212e-31
230
1
100
AcDbArc
50
180
51
270.00000000000324
0
ARC
5
227
100
AcDbEntity
8
0
100
AcDbCircle
10
39.790624999999977
20
94.500000000000057
30
0
40
0.99999999999994316
210
0
220
-0
230
1
100
AcDbArc
50
89.999999999995936
51
270
0
ARC
5
228
100
AcDbEntity
8
0
100
AcDbCircle
10
35.790625000000077
20
94.500000000000014
30
-4.0675640425458421e-30
40
0.99999999999999645
210
-4.0675640425458568e-30
220
1.1102230246251581e-15
230
1
100
AcDbArc
50
-90
51
0
0
ARC
5
229
100
AcDbEntity
8
0
100
AcDbCircle
10
1.2499999999999865
20
91.500000000000043
30
5.9391087553039937e-16
40
1.9999999999999929
210
-2.9695543776520082e-16
220
-2.5815607454737721e-16
230
1
100
AcDbArc
50
89.999999999999616
51
180
0
ARC
5
230
100
AcDbEntity
8
0
100
AcDbCircle
10
1.2499999999999718
20
3.7499999999999911
30
-1.1606858490007272e-30
40
1.9999999999999993
210
5.743302651617891e-31
220
8.7304858737231019e-32
230
1
100
AcDbArc
50
180
51
270
0
ARC
5
231
100
AcDbEntity
8
0
100
AcDbCircle
10
346.41250000000008
20
3.7500000000000009
30
-1.4204089247528167e-30
40
2.0000000000000053
210
-7.1020446237642192e-31
220
2.1716639661330057e-31
230
1
100
AcDbArc
50
269.99999999999835
51
360
0
ARC
5
232
100
AcDbEntity
8
0
100
AcDbCircle
10
346.41250000000002
20
91.499999999999986
30
6.6877239088652161e-46
40
2.0000000000000284
210
-5.2006408768163573e-46
220
3.3438619544325306e-46
230
1
100
AcDbArc
50
0
51
90
0
ARC
5
233
100
AcDbEntity
8
0
100
AcDbCircle
10
335.11249999999984
20
99.500000000000014
30
0
40
1.9999999999999836
210
-1.9626155733547477e-16
220
-1.9626155733547231e-16
230
1
100
AcDbArc
50
-135.0000000000006
51
90
0
ARC
5
234
100
AcDbEntity
8
0
100
AcDbCircle
10
252.95937499999994
20
99.500000000000014
30
0
40
1.999999999999996
210
-3.9252311467094452e-16
220
-3.9252311467094452e-16
230
1
100
AcDbArc
50
-134.99999999999972
51
90
0
ARC
5
235
100
AcDbEntity
8
0
100
AcDbCircle
10
32.79062500000002
20
99.500000000000014
30
0
40
2.0000000000000107
210
0
220
-0
230
1
100
AcDbArc
50
90
51
315
0
ARC
5
236
100
AcDbEntity
8
0
100
AcDbCircle
10
12.550000000000132
20
-4.2499999999999982
30
-9.8607613152626476e-31
40
1.9999999999999984
210
0
220
-0
230
1
100
AcDbArc
50
45.000000000000071
51
270
0
ARC
5
237
100
AcDbEntity
8
0
100
AcDbCircle
10
107.80000000000013
20
-4.2500000000000071
30
-9.8607613152626476e-31
40
1.9999999999999984
210
0
220
-0
230
1
100
AcDbArc
50
45.000000000000355
51
270
0
ARC
5
238
100
AcDbEntity
8
0
100
AcDbCircle
10
235.09999999999997
20
-4.2500000000000027
30
-9.8607613152626476e-31
40
1.9999999999999996
210
0
220
0
230
1
100
AcDbArc
50
-90
51
134.99999999999966
0
ARC
5
239
100
AcDbEntity
8
0
100
AcDbCircle
10
335.11249999999995
20
-4.2500000000000071
30
-9.8607613152626476e-31
40
1.9999999999999996
210
0
220
0
230
1
100
AcDbArc
50
-90
51
135.00000000000023
0
CIRCLE
5
240
100
AcDbEntity
8
0
100
AcDbCircle
10
322.34583333333342
20
48.350000000000009
30
-1.4860926515919541e-14
40
1.2999999999999856
210
0
220
0
230
1
0
CIRCLE
5
241
100
AcDbEntity
8
0
100
AcDbCircle
10
309.3125
20
44.350000000000009
30
-1.4860926515919541e-14
40
1.2999999999999856
210
0
220
0
230
1
0
CIRCLE
5
242
100
AcDbEntity
8
0
100
AcDbCircle
10
328.86250000000007
20
48.350000000000065
30
-1.4860926515919541e-14
40
1.2999999999999856
210
0
220
0
230
1
0
CIRCLE
5
243
100
AcDbEntity
8
0
100
AcDbCircle
10
302.79583333333329
20
44.350000000000009
30
-1.4860926515919541e-14
40
1.2999999999999856
210
0
220
0
230
1
0
CIRCLE
5
244
100
AcDbEntity
8
0
100
AcDbCircle
10
315.82916666666671
20
44.350000000000009
30
-1.4860926515919541e-14
40
1.2999999999999856
210
0
220
0
230
1
0
CIRCLE
5
245
100
AcDbEntity
8
0
100
AcDbCircle
10
335.37916666666683
20
48.350000000000108
30
-1.4860926515919541e-14
40
1.2999999999999856
210
0
220
0
230
1
0
LWPOLYLINE
5
246
100
AcDbEntity
8
0
100
AcDbPolyline
90
6
70
1
43
0.0
10
341.20301301034863
20
46.25000000000454
10
339.90397490464841
20
44.000000000005521
42
0.57735026919230581
10
340.5967952276726
20
42.800000000000253
10
343.19487143902336
20
42.800000000000139
42
0.5773502691869643
10
343.88769176205597
20
43.999999999997897
10
342.58865365640594
20
46.249999999993527
42
0.57735026918961152
0
LINE
5
247
100
AcDbEntity
8
0
100
AcDbLine
10
341.8958333333336
20
44.350000000000058
30
-1.4860926515919541e-14
11
338.86474442008796
21
42.600000000000094
31
-2.3964345098245354e-15
0
LINE
5
248
100
AcDbEntity
8
0
100
AcDbLine
10
341.8958333333336
20
44.350000000000058
30
-1.4860926515919541e-14
11
344.92692224657907
21
42.600000000000129
31
-1.4860926515919541e-14
0
ARC
5
249
100
AcDbEntity
8
0
100
AcDbCircle
10
340.5967952276726
20
43.600000000000037
30
-6.0896173264452226e-15
40
0.99999999999979283
210
8.0153810666194903e-16
220
-4.5828668336981884e-16
230
1
100
AcDbArc
50
149.99999999953874
51
270
0
LINE
5
250
100
AcDbEntity
8
0
100
AcDbLine
10
341.8958333333336
20
44.350000000000058
30
-1.4860926515919541e-14
11
341.89583333340465
21
47.850000000000051
31
-1.1621540419554876e-14
0
ENDSEC
0
SECTION
2
OBJECTS
0
DICTIONARY
5
C
100
AcDbDictionary
3
ACAD_GROUP
350
D
3
ACAD_MLINESTYLE
350
17
0
DICTIONARY
5
D
100
AcDbDictionary
0
DICTIONARY
5
1A
330
C
100
AcDbDictionary
0
DICTIONARY
5
17
100
AcDbDictionary
0
ENDSEC
0
EOF
